<?xml version="1.0" standalone="no"?>
<!DOCTYPE svg PUBLIC "-//W3C//DTD SVG 20010904//EN"
 "http://www.w3.org/TR/2001/REC-SVG-20010904/DTD/svg10.dtd">
<svg version="1.0" xmlns="http://www.w3.org/2000/svg"
 width="1138.000000pt" height="1138.000000pt" viewBox="0 0 1138.000000 1138.000000"
 preserveAspectRatio="xMidYMid meet">
<metadata>
Created by potrace 1.11, written by Peter Selinger 2001-2013
</metadata>
<g transform="translate(0.000000,1138.000000) scale(0.100000,-0.100000)"
fill="#000000" stroke="none">
<path d="M4551 10811 l0 -569 1139 1 1138 0 1 568 0 569 -1139 0 -1139 0 0
-569z"/>
<path d="M4573 9672 l-22 -3 0 -565 c0 -310 3 -565 7 -565 4 -1 514 -2 1134
-3 848 -1 1129 2 1132 11 3 6 5 262 5 570 l0 558 -1117 0 c-614 0 -1127 -1
-1139 -3z"/>
<path d="M4555 7960 c-2 -3 -4 -497 -4 -1096 0 -599 0 -1108 -1 -1131 l0 -43
-997 0 c-973 0 -996 0 -977 -19 10 -10 35 -38 55 -62 20 -24 97 -116 170 -204
74 -88 141 -168 149 -178 8 -11 26 -32 40 -47 14 -15 32 -36 40 -46 53 -65
325 -390 330 -394 3 -3 84 -99 180 -215 96 -115 177 -212 180 -215 3 -3 39
-45 80 -95 42 -49 85 -101 97 -115 51 -60 159 -189 173 -206 32 -40 335 -399
340 -404 3 -3 25 -30 49 -60 25 -30 49 -59 55 -65 6 -5 29 -32 51 -60 21 -27
42 -52 45 -55 3 -3 28 -32 55 -65 28 -33 58 -69 68 -80 10 -11 28 -33 40 -48
12 -16 29 -36 38 -45 8 -10 49 -57 90 -107 41 -49 76 -92 79 -95 3 -3 39 -45
80 -95 41 -49 77 -92 80 -95 3 -3 27 -32 55 -65 27 -33 59 -71 71 -85 18 -20
223 -264 256 -305 39 -47 53 -64 77 -90 14 -16 39 -47 55 -68 16 -20 31 -37
35 -37 4 0 43 44 87 97 43 54 88 107 99 119 11 11 38 43 60 70 22 27 50 60 61
74 37 43 97 115 139 165 22 27 45 53 50 59 6 6 55 65 110 131 54 66 115 138
135 161 19 22 46 54 60 71 68 82 100 120 118 141 11 13 35 42 54 64 18 23 51
63 73 88 22 25 58 68 80 94 22 27 45 54 50 60 8 9 66 78 230 275 11 13 25 29
30 35 6 6 44 52 85 101 41 50 77 92 80 95 3 3 50 59 105 125 55 66 102 122
105 125 3 3 38 46 79 95 41 50 82 97 90 106 9 9 23 25 31 36 29 36 324 388
330 393 3 3 16 18 29 35 12 16 42 52 66 80 24 27 81 95 126 150 46 55 89 105
94 111 6 6 26 30 45 54 19 24 42 51 50 60 8 8 35 40 60 70 25 30 47 57 50 60
4 4 105 125 175 209 11 14 35 41 53 62 17 20 32 39 32 43 0 3 -445 6 -990 6
l-990 0 0 58 c-1 31 -1 543 -1 1138 l0 1081 -1135 -1 c-624 0 -1137 -3 -1139
-6z"/>
<path d="M570 572 l0 -569 5120 0 5120 0 0 569 0 568 -5120 0 -5120 0 0 -568z"/>
</g>
</svg>
