<?xml version="1.0" standalone="no"?>
<!DOCTYPE svg PUBLIC "-//W3C//DTD SVG 20010904//EN"
 "http://www.w3.org/TR/2001/REC-SVG-20010904/DTD/svg10.dtd">
<svg version="1.0" xmlns="http://www.w3.org/2000/svg"
 width="613.000000pt" height="613.000000pt" viewBox="0 0 613.000000 613.000000"
 preserveAspectRatio="xMidYMid meet">
<metadata>
Created by potrace 1.11, written by Peter Selinger 2001-2013
</metadata>
<g transform="translate(0.000000,613.000000) scale(0.100000,-0.100000)"
fill="#000000" stroke="none">
<path d="M3394 5769 c-5 -8 -3 -9 7 -4 8 5 11 4 6 0 -6 -8 -75 -12 -215 -15
-16 0 -21 -4 -16 -13 6 -9 4 -9 -7 -1 -8 5 -32 9 -54 7 -22 -2 -56 -4 -75 -6
-19 -1 -41 -6 -49 -11 -9 -6 -12 -5 -8 1 4 7 -5 10 -23 9 -17 0 -30 -3 -30 -7
0 -3 -7 -6 -15 -6 -8 0 -15 5 -15 11 0 6 -4 5 -9 -2 -8 -14 -46 -13 -70 2 -9
6 -12 5 -7 -2 4 -8 -5 -10 -28 -8 -19 1 -33 -1 -30 -5 2 -4 -17 -6 -44 -5 -26
1 -52 -2 -59 -7 -6 -4 -14 -3 -19 4 -5 8 -3 9 6 4 9 -6 11 -4 5 5 -6 10 -11 9
-22 -5 -7 -11 -13 -14 -13 -9 0 12 -29 12 -48 0 -7 -4 -12 -2 -12 6 0 8 -3 9
-8 3 -8 -12 -72 -15 -72 -3 0 10 -30 6 -49 -6 -10 -6 -12 -5 -7 2 4 7 1 13 -6
13 -7 1 -20 2 -28 3 -8 1 -21 -3 -29 -9 -11 -7 -13 -7 -8 2 4 6 3 14 -2 17 -5
3 -12 -1 -15 -9 -4 -11 -11 -13 -23 -8 -21 10 -78 6 -113 -7 -3 -1 -8 -2 -12
-1 -5 0 -8 -4 -8 -11 0 -6 -3 -8 -7 -5 -3 4 -13 1 -21 -6 -13 -10 -14 -9 -7 2
5 9 -5 6 -22 -7 -17 -12 -33 -19 -37 -15 -3 3 -6 1 -6 -5 0 -7 -3 -11 -7 -10
-15 3 -83 -32 -83 -43 0 -5 -4 -7 -10 -4 -5 3 -10 1 -10 -5 0 -6 -4 -9 -8 -6
-7 4 -28 -10 -82 -56 -8 -7 -16 -12 -18 -10 -7 6 -107 -103 -103 -113 1 -5 -1
-7 -5 -3 -9 10 -35 -12 -28 -23 3 -5 0 -8 -8 -7 -7 2 -12 -3 -10 -9 1 -7 -4
-13 -12 -13 -8 0 -17 -9 -21 -19 -3 -11 -12 -22 -20 -25 -8 -3 -15 -12 -15
-20 0 -9 -9 -20 -20 -26 -12 -7 -17 -16 -13 -27 4 -10 2 -14 -4 -10 -6 4 -17
-1 -24 -10 -12 -14 -12 -16 1 -9 8 4 6 0 -4 -8 -11 -9 -16 -16 -10 -16 5 0 1
-5 -8 -11 -10 -5 -18 -17 -18 -24 0 -8 -4 -15 -10 -15 -5 0 -10 -6 -10 -13 0
-7 -9 -23 -20 -35 -11 -12 -20 -26 -20 -32 0 -5 -6 -10 -12 -10 -9 0 -8 -4 2
-10 13 -8 12 -10 -2 -10 -10 0 -18 -7 -18 -15 0 -8 -5 -15 -11 -15 -8 0 -7 -6
2 -17 9 -10 9 -14 2 -10 -12 7 -40 -29 -35 -45 1 -5 -3 -8 -8 -8 -9 0 -32 -42
-34 -63 -1 -4 -8 -12 -16 -17 -13 -8 -13 -10 0 -10 10 0 7 -5 -8 -16 -12 -8
-20 -20 -17 -25 4 -5 1 -9 -5 -9 -7 0 -9 -7 -6 -16 3 -8 2 -12 -4 -9 -6 3 -10
-1 -10 -9 0 -9 -4 -16 -9 -16 -6 0 -8 -9 -6 -20 2 -11 0 -18 -4 -15 -11 6 -63
-94 -54 -107 3 -6 1 -8 -4 -5 -6 4 -14 0 -17 -9 -3 -9 -12 -14 -18 -12 -7 3
-19 -1 -26 -8 -7 -7 -21 -11 -32 -9 -11 2 -18 0 -15 -5 3 -4 -9 -13 -25 -19
-17 -5 -30 -7 -30 -4 0 3 -6 0 -13 -6 -8 -6 -17 -8 -20 -4 -4 3 -7 1 -7 -5 0
-7 -3 -11 -7 -10 -5 1 -18 -3 -29 -10 -12 -6 -24 -8 -28 -5 -3 3 -6 1 -6 -6 0
-7 -4 -10 -9 -7 -5 3 -14 -1 -21 -9 -7 -8 -16 -12 -21 -9 -5 3 -9 -3 -10 -13
0 -10 -3 -13 -5 -7 -3 7 -22 2 -55 -13 -30 -15 -47 -28 -43 -35 4 -7 3 -8 -4
-4 -13 8 -114 -52 -107 -64 3 -4 -6 -11 -20 -14 -15 -4 -25 -14 -25 -24 0 -15
-2 -15 -10 -2 -8 12 -10 11 -10 -7 0 -14 -6 -23 -15 -23 -8 0 -15 -5 -15 -11
0 -6 -14 -24 -31 -41 -16 -17 -28 -37 -25 -44 3 -9 -1 -11 -12 -7 -9 3 -14 3
-11 -1 4 -4 -4 -19 -17 -33 -13 -14 -24 -30 -24 -35 0 -5 -6 -16 -12 -23 -31
-34 -36 -43 -31 -49 4 -3 1 -6 -6 -6 -7 0 -10 -4 -7 -8 3 -5 -3 -18 -14 -29
-10 -12 -16 -24 -13 -27 4 -3 1 -6 -6 -6 -7 0 -10 -4 -6 -9 3 -5 0 -13 -5 -16
-12 -7 -34 -55 -32 -67 1 -5 -2 -8 -7 -8 -7 0 -25 -48 -21 -58 0 -1 -6 -10
-15 -18 -8 -9 -15 -24 -15 -33 0 -10 -9 -30 -20 -43 -10 -14 -17 -28 -13 -31
3 -4 0 -13 -7 -22 -10 -12 -10 -15 1 -15 7 0 3 -7 -9 -16 -12 -8 -20 -20 -16
-25 3 -5 1 -15 -4 -22 -5 -7 -8 -20 -7 -30 2 -10 -1 -14 -7 -10 -7 4 -9 -2 -6
-15 4 -12 2 -22 -3 -22 -5 0 -8 -3 -8 -7 1 -5 0 -10 -1 -13 -2 -5 -7 -29 -13
-52 -1 -7 -7 -19 -11 -27 -7 -10 -6 -12 4 -6 8 5 4 -5 -8 -22 -16 -23 -18 -33
-10 -41 9 -9 9 -12 -1 -12 -8 0 -11 -6 -7 -15 3 -8 0 -15 -6 -15 -9 0 -9 -3
-1 -11 9 -9 7 -18 -5 -37 -10 -15 -11 -23 -4 -19 17 11 15 2 -4 -17 -10 -10
-11 -16 -3 -16 7 0 8 -4 2 -12 -5 -7 -9 -22 -9 -33 1 -11 -3 -23 -9 -27 -6 -5
-5 -8 3 -8 10 0 10 -5 2 -20 -8 -15 -8 -20 2 -20 9 0 9 -3 -2 -10 -13 -9 -13
-11 0 -20 10 -7 11 -10 2 -10 -8 0 -11 -11 -9 -35 3 -21 0 -35 -7 -35 -7 0 -8
-3 -1 -8 6 -4 10 -18 9 -32 -1 -14 3 -28 10 -32 7 -5 5 -8 -5 -8 -16 0 -17
-26 -6 -135 2 -11 -2 -23 -8 -27 -6 -5 -5 -8 3 -8 7 0 10 -5 7 -10 -4 -6 -1
-18 7 -27 7 -9 8 -14 2 -10 -7 4 -11 -5 -12 -23 0 -17 5 -30 11 -30 7 0 6 -4
-3 -10 -10 -7 -11 -13 -5 -17 12 -9 13 -28 3 -39 -4 -4 -4 -12 1 -18 13 -16
17 -49 7 -65 -6 -9 -5 -12 1 -8 6 4 13 -3 16 -15 4 -13 1 -26 -6 -30 -9 -6 -9
-8 1 -8 6 0 12 -7 12 -16 0 -9 5 -12 13 -8 8 5 8 2 -2 -9 -7 -9 -9 -17 -4 -17
5 0 9 -14 8 -31 -1 -17 3 -33 9 -35 6 -2 12 -18 12 -35 1 -17 8 -35 15 -40 8
-5 10 -9 5 -9 -5 0 -3 -7 4 -15 7 -8 9 -15 4 -15 -4 0 -3 -5 4 -12 7 -7 12
-20 12 -31 0 -10 7 -25 15 -34 8 -8 13 -19 10 -24 -4 -5 -1 -9 4 -9 6 0 10 -3
9 -7 -2 -12 13 -46 31 -67 10 -12 11 -16 3 -12 -11 7 -11 4 -1 -12 7 -12 17
-18 23 -15 5 3 6 1 2 -5 -3 -6 -2 -13 4 -17 6 -4 8 -11 5 -16 -4 -5 -2 -9 3
-9 5 0 12 -9 15 -21 3 -12 10 -18 16 -14 6 3 9 0 5 -8 -3 -8 5 -25 18 -37 13
-13 17 -19 9 -15 -9 5 -12 4 -7 -3 4 -7 14 -12 21 -12 8 0 12 -6 9 -14 -3 -8
3 -20 14 -27 19 -14 22 -19 22 -39 0 -5 7 -10 15 -10 8 0 15 -9 15 -20 0 -11
4 -20 9 -20 5 0 13 -9 16 -20 3 -11 13 -20 21 -20 8 0 13 -6 11 -12 -1 -7 4
-12 12 -10 9 2 11 -3 7 -14 -4 -11 0 -18 14 -21 11 -3 17 -9 14 -14 -3 -5 0
-9 5 -9 6 0 11 -4 11 -10 0 -5 17 -26 37 -47 21 -20 38 -42 38 -48 1 -5 6 -9
13 -8 7 2 12 -2 12 -8 0 -6 17 -27 37 -47 21 -20 37 -40 36 -44 -2 -5 1 -7 5
-5 4 1 38 -29 75 -66 39 -39 73 -65 79 -61 7 4 8 3 4 -4 -4 -7 0 -12 10 -12
10 0 15 -3 11 -6 -6 -6 16 -34 27 -34 6 0 14 -7 71 -58 14 -12 25 -19 25 -15
0 4 9 -3 21 -15 11 -12 25 -19 31 -16 7 4 8 2 4 -4 -6 -11 5 -16 26 -13 4 0 5
-6 1 -15 -3 -8 -2 -14 3 -12 15 4 54 -13 54 -23 0 -6 5 -7 10 -4 6 3 10 -1 10
-10 0 -9 4 -13 10 -10 5 3 10 1 10 -5 0 -6 14 -16 30 -21 17 -6 30 -15 30 -21
0 -5 4 -6 10 -3 5 3 10 1 10 -4 0 -6 7 -11 15 -11 8 0 15 -5 15 -11 0 -6 7 -9
15 -5 9 3 15 0 15 -10 0 -8 5 -12 10 -9 6 3 13 -1 16 -9 3 -9 10 -13 15 -10 5
3 16 -2 25 -10 9 -9 20 -14 25 -10 5 3 8 0 7 -6 -2 -7 6 -14 16 -16 10 -1 22
-6 25 -11 3 -4 13 -9 21 -11 8 -2 17 -8 18 -13 2 -5 8 -7 13 -3 5 3 9 0 9 -7
0 -7 3 -10 6 -6 4 3 13 -1 21 -9 8 -8 19 -12 24 -9 5 4 9 3 9 -2 0 -9 61 -39
73 -35 4 1 7 -3 7 -8 0 -6 6 -10 14 -10 7 0 19 -6 26 -14 6 -8 17 -13 24 -10
8 3 20 -2 29 -10 8 -8 17 -12 21 -9 3 4 6 0 6 -7 0 -7 3 -10 7 -7 3 4 17 0 30
-8 13 -9 28 -13 33 -10 6 3 10 1 10 -5 0 -6 4 -8 10 -5 5 3 10 2 10 -3 0 -9
55 -26 73 -23 4 0 7 -4 7 -11 0 -6 3 -9 6 -5 4 3 21 -1 38 -10 17 -10 37 -16
44 -15 6 2 12 -2 12 -7 0 -6 7 -8 15 -5 8 4 15 2 15 -3 0 -8 15 -12 58 -15 6
-1 12 -6 12 -11 0 -5 6 -7 14 -4 7 3 23 -1 34 -9 16 -11 21 -11 25 -1 4 9 6 9
6 0 1 -7 10 -13 20 -13 11 0 23 -5 27 -11 4 -8 9 -7 16 2 7 11 11 11 15 2 2
-7 21 -13 42 -13 20 0 43 -6 50 -12 11 -11 12 -10 6 2 -8 13 -7 13 8 1 14 -11
17 -11 17 0 0 11 2 11 10 -1 5 -8 10 -12 10 -8 0 4 13 3 29 -2 19 -5 33 -4 40
3 8 8 11 7 11 -2 0 -7 6 -11 15 -8 8 4 17 1 21 -5 4 -7 9 -6 15 3 6 10 9 11 9
2 0 -7 5 -13 11 -13 5 0 7 6 3 13 -6 9 -4 9 7 1 8 -6 24 -10 37 -9 17 1 21 -2
17 -13 -4 -12 -3 -13 10 -2 8 7 28 10 45 8 16 -3 30 -1 30 4 0 5 5 6 12 2 7
-4 24 -8 38 -8 14 -1 31 -5 39 -10 11 -7 12 -6 6 5 -7 11 -6 12 6 3 16 -12 29
-12 47 -1 6 5 12 4 12 0 0 -5 14 -9 30 -8 17 0 30 4 30 9 0 5 8 2 17 -5 15
-12 16 -12 8 1 -8 13 -6 13 8 2 9 -8 22 -10 29 -6 18 11 48 12 54 2 3 -5 12
-4 19 2 10 8 15 8 20 0 5 -8 10 -8 20 0 10 8 15 8 20 0 5 -8 10 -8 20 0 10 8
15 8 20 0 5 -8 10 -8 20 0 10 8 15 8 20 0 5 -8 10 -8 20 0 10 8 15 8 20 0 5
-8 10 -8 20 0 10 8 15 8 20 0 5 -8 10 -8 20 0 10 8 15 8 20 0 5 -8 10 -8 20 0
10 8 15 8 20 0 5 -8 10 -8 20 0 9 8 15 8 20 0 3 -6 11 -7 18 -3 6 3 34 8 61
11 71 5 69 5 90 -4 15 -6 17 -4 11 6 -6 10 -4 12 8 7 9 -3 19 -1 23 5 4 7 9 6
14 -2 5 -9 13 -9 27 -2 14 8 23 8 31 0 9 -9 12 -8 12 2 0 13 2 13 10 0 6 -9
10 -11 10 -3 0 7 7 10 17 6 12 -5 14 -3 8 8 -7 12 -6 12 7 1 12 -10 18 -10 23
-1 6 8 10 7 16 -2 5 -9 9 -9 9 -3 0 16 36 24 49 11 8 -8 11 -8 11 0 0 5 11 9
25 8 14 -2 25 1 25 6 0 7 6 7 17 0 12 -6 21 -5 31 7 7 10 11 12 8 5 -4 -7 1
-11 13 -10 11 0 18 4 16 7 -2 3 14 6 36 7 22 0 47 7 56 14 14 12 16 12 8 -1
-7 -12 -6 -13 6 -4 8 6 24 10 37 9 14 -1 22 4 22 14 0 13 2 13 9 2 6 -9 11
-10 15 -2 4 6 11 9 16 6 5 -3 11 -1 15 4 3 6 12 8 20 4 8 -3 15 0 15 7 0 7 7
10 15 6 8 -3 15 0 15 7 0 8 4 6 10 -3 7 -11 10 -11 10 -2 0 7 4 11 9 8 12 -8
62 19 53 29 -4 4 3 3 14 -3 17 -9 25 -8 34 3 7 8 16 12 22 9 5 -3 15 0 23 6 8
6 19 9 25 5 5 -3 10 -2 10 3 0 6 7 13 16 16 10 4 13 2 8 -7 -6 -9 -5 -9 7 0 9
7 26 14 38 16 13 2 27 10 32 18 7 11 9 11 9 1 0 -10 4 -9 16 3 13 13 19 13 32
3 12 -10 14 -10 8 0 -4 6 -4 12 1 13 29 3 47 9 54 21 5 7 9 9 9 4 0 -5 7 -3
15 4 8 7 15 10 15 7 0 -3 14 -1 30 4 17 6 30 15 30 21 0 5 5 6 10 3 6 -3 10
-2 10 4 0 6 7 8 15 5 8 -4 15 -1 15 6 0 6 4 9 8 6 4 -2 28 6 52 18 25 13 49
25 55 27 5 2 9 8 7 12 -1 5 2 6 8 2 5 -3 24 3 40 15 16 12 34 18 40 15 5 -3
10 -1 10 5 0 6 5 8 10 5 6 -3 13 1 16 9 3 9 10 13 15 10 5 -3 9 0 9 5 0 6 7
11 15 11 8 0 15 5 15 11 0 5 5 7 10 4 6 -3 10 -1 10 5 0 6 4 9 10 5 5 -3 18 3
30 15 11 11 26 20 34 20 8 0 17 9 21 19 3 11 12 18 19 15 7 -3 16 2 20 11 3 9
10 13 16 10 6 -3 13 1 16 9 3 9 10 14 14 11 5 -3 11 4 15 15 4 11 10 18 14 15
5 -2 27 13 50 35 22 21 41 37 41 34 0 -2 14 9 30 26 17 17 30 35 30 41 0 6 3
8 8 6 4 -2 17 6 30 19 12 13 20 24 17 24 -3 0 8 14 25 30 17 17 28 34 25 39
-3 5 4 12 15 16 11 4 18 10 15 15 -3 4 2 11 11 14 8 3 12 10 9 16 -3 6 1 13 9
16 9 3 14 10 11 14 -3 4 2 11 11 14 8 3 12 10 9 16 -3 5 -3 10 2 10 15 0 32
49 19 54 -6 2 -3 5 7 5 9 1 17 8 17 16 0 8 4 15 9 15 5 0 12 13 16 30 4 16 11
32 16 35 5 4 9 15 9 26 0 10 6 19 13 19 9 0 9 2 -1 9 -11 6 -10 10 3 15 10 3
15 12 11 21 -3 8 -1 15 5 15 6 0 7 5 4 10 -3 6 -2 10 4 10 6 0 8 6 5 14 -3 8
0 17 5 21 6 3 9 11 6 16 -4 5 -2 9 3 9 5 0 8 11 7 25 -2 14 1 25 7 25 6 0 8 7
4 15 -3 8 -1 15 4 15 5 0 7 6 4 14 -3 8 0 17 6 21 9 6 9 10 -1 16 -11 7 -11
11 -2 17 7 4 14 20 15 35 1 15 6 27 11 27 5 0 5 6 -2 13 -8 10 -7 17 2 27 10
10 9 11 -3 5 -12 -7 -13 -6 -3 7 7 8 10 18 6 21 -3 4 -1 7 6 7 9 0 9 5 1 20
-8 15 -8 20 1 20 7 0 10 3 6 6 -3 3 -2 17 3 30 6 16 6 24 -1 24 -6 0 -6 7 1
20 8 14 8 20 0 20 -6 0 -8 5 -5 11 11 16 12 69 3 69 -5 0 -4 9 2 20 8 14 8 20
0 20 -8 0 -8 6 0 20 8 15 8 20 -1 20 -8 0 -8 4 1 15 9 11 9 15 1 15 -8 0 -9 5
-1 19 7 14 7 22 0 26 -6 4 -8 10 -5 15 3 5 1 12 -5 15 -8 5 -8 11 0 20 6 7 7
16 2 19 -5 3 -7 19 -4 37 3 21 1 30 -6 25 -11 -7 -9 25 3 44 3 6 1 10 -6 10
-7 0 -9 3 -6 7 4 3 2 12 -4 20 -7 7 -7 13 -2 13 6 0 8 11 5 25 -2 14 -8 25
-12 25 -5 0 -5 13 0 29 5 17 4 33 -1 38 -6 6 -11 20 -12 32 -1 11 -4 21 -7 21
-3 0 -6 10 -7 23 0 12 -4 38 -8 57 -4 19 -8 43 -9 53 0 9 -7 17 -16 18 -11 0
-11 2 -2 6 10 4 10 8 0 21 -11 13 -11 15 2 8 8 -4 5 1 -8 12 -16 15 -18 22
-10 26 10 5 10 7 1 12 -7 3 -10 11 -7 19 3 7 0 16 -5 20 -6 3 -9 11 -5 16 3 6
-2 19 -12 30 -9 10 -14 19 -9 19 4 0 3 6 -2 13 -6 6 -9 20 -8 30 3 15 1 16
-13 5 -10 -8 -13 -9 -9 -1 9 15 -21 93 -36 93 -6 0 -7 3 -4 6 3 4 1 16 -5 28
-7 11 -11 24 -10 29 1 4 -4 7 -11 7 -7 0 -13 9 -14 21 -1 11 -11 29 -22 39
-12 9 -21 22 -21 29 0 6 -13 25 -30 42 -16 18 -27 35 -24 40 3 5 0 9 -6 9 -17
0 -45 30 -28 30 7 1 2 7 -12 15 -14 8 -20 14 -15 15 6 0 -1 10 -15 23 -14 12
-31 34 -39 50 -8 15 -20 27 -27 27 -7 0 -16 9 -19 20 -4 11 -11 18 -16 15 -5
-4 -9 0 -9 8 0 19 -34 49 -45 40 -4 -5 -5 -3 -2 4 9 14 -21 46 -34 37 -5 -3
-8 -2 -7 3 5 16 -41 65 -53 57 -8 -4 -9 -3 -5 4 4 7 2 12 -3 12 -6 0 -11 6
-11 14 0 8 -9 17 -19 21 -11 3 -23 15 -26 26 -6 18 -18 24 -40 19 -5 -1 -7 1
-3 5 8 9 -1 18 -62 65 -25 19 -48 39 -52 45 -5 6 -8 6 -8 0 0 -5 -9 3 -19 19
-11 17 -18 33 -15 38 3 4 0 8 -6 8 -7 0 -10 7 -6 15 3 8 0 15 -7 15 -8 0 -8 3
2 9 9 6 10 11 2 15 -6 4 -9 12 -6 17 4 5 2 9 -2 9 -5 0 -10 8 -11 18 -3 30 -7
47 -15 59 -4 6 -8 23 -9 37 -1 14 -6 26 -10 26 -4 0 -8 5 -8 11 0 5 6 7 13 4
6 -4 1 3 -13 15 -14 12 -19 19 -12 15 6 -3 12 -1 12 4 0 6 -4 11 -10 11 -5 0
-10 12 -10 27 0 14 -8 35 -17 46 -13 15 -14 18 -3 12 13 -8 13 -6 2 8 -8 9
-11 21 -7 27 3 5 1 10 -4 10 -6 0 -11 8 -11 18 0 10 -9 37 -20 60 -11 22 -20
48 -20 57 0 8 -3 15 -7 15 -5 0 -13 11 -20 25 -6 14 -7 23 -3 20 5 -3 2 8 -6
25 -9 16 -20 30 -25 30 -6 0 -8 4 -4 9 3 6 -3 25 -14 44 -11 19 -17 38 -14 41
4 3 1 6 -5 6 -7 0 -11 3 -10 8 4 13 -34 82 -42 77 -5 -3 -7 2 -6 12 2 9 -4 25
-13 35 -9 10 -16 22 -15 26 0 11 -20 30 -28 26 -4 -3 -5 5 -3 16 2 13 -1 20
-11 20 -8 0 -14 7 -14 15 0 9 -7 18 -15 21 -8 4 -13 10 -10 14 7 11 -41 60
-51 52 -4 -4 -4 -2 -1 4 4 6 -2 21 -12 33 -14 16 -21 18 -24 9 -4 -9 -6 -7 -6
4 -1 9 -12 25 -26 36 -13 11 -21 22 -18 26 3 3 -1 6 -10 6 -10 0 -17 5 -17 10
0 6 -11 16 -25 22 -14 6 -25 17 -25 25 0 7 -6 13 -13 13 -8 0 -22 9 -32 20
-10 11 -21 17 -26 15 -4 -3 -11 0 -15 6 -5 8 -3 9 7 4 12 -8 12 -6 1 8 -8 9
-17 16 -20 15 -16 -3 -41 15 -35 26 3 6 3 8 -2 4 -5 -5 -23 4 -42 18 -18 14
-33 22 -33 18 0 -3 -8 3 -17 14 -10 12 -24 22 -32 24 -8 2 -23 11 -33 21 -10
9 -25 17 -33 17 -8 0 -15 5 -15 10 0 6 -5 10 -11 10 -5 0 -7 -6 -4 -12 4 -7
-3 -2 -15 12 -12 14 -19 18 -15 10 4 -8 0 -7 -9 4 -8 10 -19 15 -24 12 -6 -3
-13 1 -16 10 -3 8 -10 12 -16 9 -5 -3 -10 -1 -10 6 0 7 -3 9 -7 6 -3 -4 -17 0
-30 8 -13 9 -27 13 -32 10 -5 -2 -12 2 -15 11 -3 8 -11 14 -18 13 -26 -3 -39
1 -33 11 3 6 -1 7 -9 4 -8 -3 -29 1 -46 9 -19 10 -28 11 -24 4 5 -8 3 -8 -7 1
-7 6 -23 12 -36 12 -13 0 -23 4 -23 8 0 9 -29 12 -127 14 -30 1 -53 6 -53 12
0 6 -4 5 -9 -2 -4 -8 -12 -14 -16 -14 -4 0 -12 6 -16 14 -5 7 -9 8 -9 2 0 -12
-48 -13 -67 -1 -6 4 -15 2 -19 -4z m-2474 -2067 c-6 -2 -8 -8 -4 -13 3 -5 1
-9 -5 -9 -5 0 -8 -18 -7 -40 2 -22 -1 -37 -6 -34 -11 7 -6 -19 6 -28 6 -4 4
-13 -3 -22 -11 -13 -11 -16 0 -16 11 0 11 -2 -1 -10 -8 -5 -10 -10 -3 -10 12
0 12 -24 0 -36 -4 -4 0 -16 10 -26 11 -13 12 -18 3 -18 -8 0 -9 -4 -4 -12 5
-7 9 -25 8 -40 0 -16 4 -28 9 -28 6 0 7 -3 4 -7 -4 -3 -2 -12 4 -20 9 -10 8
-13 -1 -13 -9 0 -10 -3 -1 -13 6 -8 8 -17 4 -20 -3 -4 -1 -12 4 -19 11 -14 27
-68 25 -80 -1 -5 3 -8 9 -8 6 0 9 -7 5 -15 -3 -8 -1 -15 5 -15 6 0 9 -6 6 -14
-3 -8 1 -17 9 -20 8 -3 14 -13 14 -23 0 -9 10 -28 23 -41 12 -14 15 -21 7 -17
-13 8 -13 7 0 -11 8 -10 17 -21 20 -24 20 -20 43 -52 33 -46 -7 4 -13 2 -13
-3 0 -6 7 -11 15 -11 8 0 15 -4 15 -10 0 -5 10 -19 23 -31 12 -12 15 -18 7
-14 -8 4 -3 -4 13 -19 15 -15 27 -33 27 -41 0 -8 5 -17 12 -21 7 -5 9 -2 4 7
-4 8 1 3 12 -11 12 -14 19 -26 17 -29 -6 -5 48 -47 57 -44 5 2 7 0 6 -5 -3
-15 15 -42 29 -42 8 0 11 -4 8 -10 -3 -5 1 -10 10 -10 9 0 14 -4 11 -8 -3 -5
6 -15 19 -22 14 -7 25 -17 25 -22 0 -4 6 -8 14 -8 8 0 17 -7 20 -16 3 -8 10
-12 16 -9 5 3 10 -2 10 -11 0 -10 3 -15 6 -11 3 3 20 -7 38 -23 17 -17 36 -30
42 -30 6 0 28 -13 50 -30 21 -16 45 -30 52 -30 6 0 12 -4 12 -8 0 -5 23 -19
50 -31 28 -12 50 -27 50 -32 0 -6 5 -7 10 -4 6 3 13 0 16 -9 3 -8 11 -13 19
-10 7 3 19 -2 28 -10 9 -9 23 -16 31 -16 9 0 16 -4 16 -10 0 -5 9 -10 20 -10
11 0 20 -5 20 -11 0 -5 5 -7 10 -4 6 3 13 -1 16 -10 5 -12 10 -13 20 -4 11 9
15 8 20 -5 3 -9 10 -13 15 -10 5 3 9 0 9 -6 0 -6 4 -9 9 -5 5 3 12 1 16 -5 4
-6 11 -8 16 -5 5 4 9 1 9 -4 0 -6 9 -11 19 -11 11 0 23 -4 26 -10 3 -5 15 -10
26 -10 10 0 19 -4 19 -10 0 -5 7 -7 15 -4 8 4 15 2 15 -3 0 -9 6 -11 49 -15
11 -1 17 -6 15 -10 -3 -4 -1 -8 5 -8 5 0 17 -3 27 -7 13 -5 15 -3 9 8 -5 8 -1
7 12 -4 11 -9 23 -14 26 -10 4 3 7 1 7 -5 0 -7 11 -12 25 -12 14 0 25 -4 25
-8 0 -4 12 -9 27 -10 15 -1 30 -7 34 -14 4 -6 14 -8 23 -5 9 4 16 1 16 -6 0
-8 4 -6 10 3 7 12 10 12 10 1 0 -7 6 -11 15 -7 8 3 15 1 15 -4 0 -6 11 -10 24
-10 14 0 28 -5 31 -10 5 -8 12 -7 23 2 12 10 14 10 8 1 -7 -12 16 -18 52 -14
6 1 12 -2 12 -6 0 -5 12 -10 26 -11 15 -1 33 -7 40 -12 8 -7 14 -8 18 -1 4 6
20 4 43 -6 36 -14 37 -14 23 4 -14 17 -14 17 7 0 12 -11 27 -16 32 -12 6 3 11
0 12 -7 0 -10 2 -10 6 -1 3 9 10 10 23 3 11 -6 32 -10 47 -9 24 0 68 -6 68
-11 0 -1 10 -3 23 -4 12 -2 22 2 22 8 0 6 5 5 12 -2 8 -8 15 -9 25 -1 9 8 13
8 13 0 0 -6 11 -11 25 -11 14 0 25 5 25 11 0 6 7 3 16 -6 11 -10 19 -13 23 -6
4 6 12 6 21 1 9 -6 18 -3 28 8 7 9 10 11 7 4 -6 -11 3 -13 37 -11 24 2 49 0
55 -4 6 -4 14 0 17 9 6 15 8 15 26 -1 12 -11 20 -13 20 -6 0 9 5 9 20 1 11 -6
20 -7 20 -3 0 4 22 8 50 7 27 0 50 4 50 9 0 5 7 4 15 -3 12 -10 15 -10 15 0 0
10 3 10 14 1 11 -9 16 -9 21 0 6 8 10 7 16 -2 7 -12 9 -12 9 0 0 11 3 11 15 1
11 -9 15 -9 15 -1 0 7 5 9 10 6 6 -3 10 -2 10 3 0 5 16 7 35 5 20 -2 45 2 56
8 17 9 23 8 30 -2 5 -8 9 -9 9 -3 0 11 2 11 58 15 17 1 32 6 32 11 0 4 5 8 11
8 5 0 7 -6 3 -12 -6 -10 -5 -10 8 -1 8 7 18 10 21 6 4 -3 7 -1 7 5 0 7 5 12
11 12 5 0 7 -5 3 -11 -4 -7 3 -6 17 2 13 7 29 13 34 14 38 3 94 18 90 25 -2 4
9 6 25 4 20 -2 33 2 39 14 8 13 10 13 11 3 0 -11 4 -10 16 5 8 10 13 13 9 7
-7 -15 11 -18 20 -3 4 6 11 8 16 5 5 -4 12 1 15 9 3 9 10 13 15 10 5 -3 24 2
42 11 17 9 41 18 52 21 11 2 21 8 23 13 2 6 10 7 18 4 8 -3 14 0 14 7 0 6 5 8
10 5 6 -3 13 1 16 9 3 9 10 14 14 11 4 -3 19 4 33 15 14 11 32 19 39 18 7 -2
12 3 10 10 -1 8 2 11 8 7 5 -3 19 3 31 14 12 11 26 18 31 15 4 -3 8 0 8 5 0 6
7 11 16 11 9 0 12 5 8 12 -5 7 -2 9 7 6 16 -6 41 16 31 28 -4 4 1 5 10 1 9 -3
19 0 22 9 3 8 12 14 20 14 8 0 18 5 22 12 5 7 2 9 -7 4 -8 -4 -5 -1 5 8 10 8
23 13 28 10 4 -3 12 5 17 18 6 13 10 20 10 16 1 -5 17 8 38 27 20 19 40 32 45
29 4 -3 5 3 1 12 -4 12 -3 15 5 10 8 -4 16 2 21 16 6 13 10 20 10 16 1 -4 11
3 24 15 13 12 21 26 19 31 -3 5 2 6 12 3 9 -4 15 -3 11 2 -3 5 1 16 9 24 8 8
12 17 9 21 -4 3 2 6 11 6 12 0 16 5 12 16 -3 8 -2 13 3 10 5 -3 15 2 22 11 12
14 12 16 -1 9 -8 -4 -7 -1 4 8 10 8 15 20 11 26 -3 6 -2 9 4 8 5 -2 21 18 34
45 13 26 20 47 14 47 -6 0 -3 8 5 18 9 9 13 23 11 30 -3 6 -1 12 5 12 5 0 9 7
9 15 0 8 -5 15 -10 15 -5 0 -4 7 3 15 6 8 9 19 5 25 -3 5 -2 10 4 10 7 0 7 8
2 23 -5 13 -5 30 -1 37 5 9 4 20 -2 27 -6 7 -6 13 -1 13 5 0 9 9 9 20 0 11 -5
20 -10 20 -7 0 -6 4 0 10 6 6 8 33 4 64 -4 42 -3 53 7 49 7 -3 13 -9 13 -15 0
-5 6 -6 13 -2 9 6 9 4 -1 -8 -7 -9 -9 -18 -4 -20 5 -1 19 -22 30 -46 11 -23
15 -39 9 -36 -7 3 -5 0 3 -8 15 -13 18 -20 27 -68 2 -14 8 -26 13 -28 5 -2 6
-10 3 -18 -3 -8 -1 -14 5 -14 6 0 8 -10 4 -22 -4 -16 -2 -19 9 -13 11 6 12 5
2 -5 -9 -10 -10 -17 -1 -27 8 -10 8 -17 0 -25 -8 -8 -7 -16 1 -28 8 -14 7 -23
-4 -36 -9 -11 -9 -15 -1 -10 7 4 12 1 13 -8 3 -29 4 -34 12 -42 4 -4 7 -12 7
-18 0 -6 -4 -5 -9 2 -5 9 -8 -6 -8 -37 1 -28 6 -51 12 -51 6 0 7 -3 0 -8 -15
-10 -16 -72 -2 -72 8 0 8 -3 2 -8 -6 -4 -11 -16 -11 -27 0 -11 5 -23 11 -27 6
-5 5 -8 -3 -8 -7 0 -11 -4 -7 -9 3 -5 1 -12 -5 -16 -5 -3 -10 -11 -10 -16 0
-6 6 -7 13 -3 9 6 9 4 1 -7 -6 -8 -10 -33 -7 -57 2 -30 0 -41 -8 -36 -7 4 -7
-1 1 -16 8 -15 8 -20 1 -16 -15 10 -14 -7 2 -23 10 -11 10 -13 0 -7 -8 4 -13
2 -14 -6 -1 -13 -3 -29 -10 -58 -2 -8 -10 -21 -16 -28 -7 -7 -13 -20 -13 -28
0 -8 -4 -14 -10 -14 -5 0 -10 -3 -9 -7 2 -17 -14 -52 -21 -48 -5 3 -12 -5 -16
-17 -7 -22 -15 -34 -46 -69 -10 -10 -18 -23 -18 -29 0 -5 -4 -10 -9 -10 -5 0
-12 -9 -16 -20 -3 -11 -12 -19 -18 -17 -7 1 -11 -4 -10 -10 2 -7 -3 -13 -11
-13 -8 0 -18 -9 -21 -21 -4 -11 -9 -18 -12 -16 -9 9 -54 -37 -49 -50 3 -8 -1
-10 -11 -6 -9 4 -14 2 -11 -3 3 -5 0 -15 -8 -22 -8 -7 -14 -10 -14 -6 0 4 -9
-3 -20 -16 -11 -13 -20 -20 -20 -17 0 4 -10 -4 -23 -16 -13 -12 -21 -26 -19
-31 3 -5 0 -6 -6 -2 -6 3 -17 -1 -25 -9 -9 -8 -20 -15 -25 -15 -6 0 -13 -7
-16 -16 -3 -8 -10 -13 -15 -9 -6 3 -14 -3 -20 -12 -6 -10 -11 -13 -11 -8 0 6
-5 3 -10 -5 -5 -8 -15 -15 -22 -15 -7 -1 -12 -7 -10 -14 1 -7 -2 -10 -9 -5 -7
4 -18 -1 -25 -10 -7 -10 -15 -17 -18 -17 -20 3 -26 0 -21 -9 4 -6 3 -10 -2 -9
-19 5 -62 -14 -56 -24 3 -5 1 -7 -5 -3 -6 3 -13 2 -17 -4 -3 -5 -15 -10 -26
-10 -10 0 -19 -5 -19 -12 0 -6 -3 -8 -6 -5 -4 3 -16 1 -28 -5 -11 -7 -25 -13
-31 -14 -5 -1 -23 -8 -40 -15 -16 -7 -33 -13 -37 -13 -3 -1 -9 -4 -13 -8 -4
-4 -13 -4 -20 -2 -7 3 -16 0 -20 -5 -3 -6 -11 -9 -16 -6 -5 4 -9 1 -9 -4 0 -6
-3 -10 -7 -9 -13 2 -67 -14 -80 -24 -7 -5 -17 -7 -23 -3 -5 3 -10 2 -10 -2 0
-5 -9 -10 -20 -11 -11 -1 -29 -3 -40 -4 -11 -1 -20 -6 -20 -11 0 -4 -4 -5 -10
-2 -5 3 -10 0 -10 -7 0 -10 -2 -10 -9 1 -6 9 -11 10 -15 2 -4 -6 -18 -11 -32
-11 -13 0 -24 -5 -24 -10 0 -7 -6 -7 -19 0 -14 7 -22 7 -26 -1 -4 -5 -12 -8
-18 -6 -7 2 -18 -3 -25 -12 -10 -12 -15 -13 -18 -4 -4 10 -11 10 -26 2 -11 -6
-26 -8 -34 -5 -9 3 -14 -1 -15 -12 0 -10 -3 -12 -6 -4 -6 16 -33 16 -33 0 0
-9 -4 -8 -10 2 -8 13 -10 13 -10 1 0 -12 -3 -12 -12 -3 -8 8 -15 9 -25 1 -7
-6 -31 -11 -53 -11 -22 1 -38 -3 -36 -7 3 -4 -1 -8 -9 -8 -8 0 -12 5 -8 10 3
5 -5 3 -18 -3 -17 -10 -24 -10 -27 -1 -2 6 -9 8 -15 4 -12 -8 -55 -14 -95 -13
-13 0 -20 -5 -17 -10 3 -6 -1 -7 -9 -4 -9 3 -13 11 -9 17 4 6 1 7 -7 2 -7 -4
-40 -7 -74 -6 -43 0 -57 -2 -46 -9 8 -5 10 -10 4 -10 -6 0 -17 7 -24 14 -8 11
-18 12 -35 6 -13 -5 -26 -6 -29 -3 -3 3 -13 0 -23 -8 -15 -12 -16 -12 -11 2 6
14 2 16 -20 10 -15 -4 -44 -4 -65 1 -21 5 -43 5 -49 2 -6 -4 -14 0 -19 7 -8
12 -10 12 -18 0 -7 -11 -13 -12 -23 -3 -8 7 -19 7 -28 2 -9 -5 -19 -5 -27 2
-7 5 -19 8 -27 5 -7 -3 -19 0 -26 6 -10 9 -11 9 -5 -3 6 -11 4 -11 -11 2 -13
11 -24 14 -34 8 -9 -5 -19 -5 -27 2 -10 8 -13 7 -13 -3 0 -12 -2 -12 -9 0 -5
8 -19 12 -35 9 -14 -3 -23 -1 -20 3 4 8 -43 14 -68 10 -5 0 -8 5 -8 11 0 9 -4
8 -10 -2 -7 -11 -10 -11 -10 -2 0 7 -4 10 -10 7 -5 -3 -10 0 -10 7 0 10 -2 10
-9 0 -10 -16 -21 -17 -30 -3 -6 10 -54 21 -114 26 -16 1 -32 6 -35 11 -4 5
-18 11 -32 12 -14 2 -27 8 -28 13 -2 6 -11 4 -20 -3 -13 -11 -14 -11 -7 1 6
11 4 13 -8 8 -10 -3 -17 -3 -17 2 0 4 -7 8 -15 9 -8 1 -22 3 -30 4 -8 1 -15 5
-15 9 0 4 -9 6 -20 4 -11 -2 -20 0 -20 4 0 8 -56 25 -72 22 -5 0 -8 4 -8 10 0
6 -7 9 -15 5 -8 -3 -15 -1 -15 5 0 6 -7 9 -15 5 -8 -3 -15 -1 -15 5 0 6 -4 8
-9 5 -5 -4 -11 -1 -13 5 -2 6 -15 12 -30 12 -14 1 -24 5 -22 8 2 4 -12 10 -31
13 -19 4 -40 13 -47 20 -7 7 -17 13 -21 13 -20 2 -67 26 -67 35 0 5 -4 6 -10
3 -5 -3 -10 -2 -10 4 0 6 -7 8 -15 5 -8 -4 -15 -1 -15 5 0 6 -11 11 -25 11
-14 0 -25 4 -25 9 0 5 -8 11 -17 14 -24 8 -77 40 -81 50 -2 4 -8 5 -13 1 -5
-3 -9 0 -9 7 0 7 -3 10 -6 6 -4 -3 -13 1 -21 9 -8 8 -19 11 -25 8 -7 -4 -8 -2
-4 4 4 7 2 13 -3 13 -6 1 -16 2 -21 3 -6 0 -15 8 -20 16 -5 8 -10 11 -10 6 0
-5 -8 1 -19 12 -10 12 -21 19 -25 15 -3 -3 -6 -1 -6 6 0 7 -4 10 -9 7 -5 -3
-12 1 -15 10 -4 9 -13 14 -21 10 -9 -3 -15 0 -15 9 0 7 -9 17 -20 20 -11 3
-20 11 -20 16 0 5 -6 9 -12 9 -7 0 -26 14 -42 30 -16 17 -36 30 -44 30 -9 0
-13 3 -9 6 7 7 -26 42 -35 37 -4 -2 -13 5 -20 17 -7 11 -18 20 -25 20 -7 0
-13 7 -13 16 0 8 -5 12 -10 9 -5 -3 -10 2 -10 11 0 10 -3 15 -6 11 -7 -6 -34
15 -29 23 1 3 -12 19 -28 35 -17 17 -27 24 -22 16 5 -10 4 -12 -3 -7 -7 4 -12
14 -12 22 0 8 -5 12 -10 9 -6 -3 -10 3 -10 14 0 12 -6 21 -14 21 -8 0 -18 5
-22 12 -5 7 -2 9 7 4 8 -4 5 0 -6 9 -11 9 -19 19 -18 23 0 4 -5 13 -13 20 -8
7 -14 9 -14 5 0 -9 -23 29 -39 65 -6 12 -16 22 -22 22 -7 0 -9 3 -6 7 4 3 0
14 -9 24 -8 9 -17 25 -18 34 -1 9 -8 20 -15 24 -7 5 -13 12 -13 17 0 5 -3 8
-7 7 -4 -1 -8 4 -8 12 0 8 4 12 8 10 4 -3 2 6 -4 20 -7 14 -15 25 -19 25 -4 0
-5 9 -3 20 3 14 -2 20 -13 20 -15 0 -15 2 -2 10 8 5 10 10 5 10 -6 0 -12 14
-13 32 -2 17 -6 36 -11 42 -9 13 -13 43 -14 104 0 23 -5 42 -10 42 -6 0 -7 3
-4 6 3 4 2 15 -3 25 -7 12 -6 20 2 25 7 5 8 3 3 -6 -5 -9 -4 -11 4 -6 9 6 9
11 1 21 -7 8 -8 20 -3 27 13 21 13 79 -1 71 -6 -4 -3 4 6 19 12 19 14 28 5 37
-8 8 -8 11 1 11 7 0 12 5 12 11 0 5 -5 7 -11 3 -6 -3 -3 6 7 21 14 21 15 28 5
35 -9 5 -10 9 -2 11 6 2 14 22 16 44 3 21 11 43 18 47 9 6 8 8 -3 8 -13 0 -13
2 -1 9 8 5 11 16 8 25 -3 8 -1 18 4 22 6 3 9 15 6 25 -3 12 -1 17 6 12 6 -4 8
2 5 15 -4 15 0 25 10 32 14 8 14 9 2 10 -12 0 -12 2 -2 9 8 4 13 11 13 15 -2
21 13 66 23 66 6 0 4 5 -4 10 -9 6 -10 10 -3 10 6 0 10 9 8 20 -2 11 0 18 4
15 5 -3 12 2 15 11 4 10 2 13 -7 8 -9 -5 -9 -4 1 7 6 7 12 23 12 36 0 13 5 23
10 23 6 0 10 8 10 18 0 10 6 24 13 31 10 11 9 12 -3 6 -12 -7 -12 -5 1 11 9
10 15 27 14 36 -3 14 0 15 16 5 11 -7 15 -13 9 -15z"/>
</g>
</svg>
