<?xml version="1.0" standalone="no"?>
<!DOCTYPE svg PUBLIC "-//W3C//DTD SVG 20010904//EN"
 "http://www.w3.org/TR/2001/REC-SVG-20010904/DTD/svg10.dtd">
<svg version="1.0" xmlns="http://www.w3.org/2000/svg"
 width="350.000000pt" height="350.000000pt" viewBox="0 0 350.000000 350.000000"
 preserveAspectRatio="xMidYMid meet">
<metadata>
Created by potrace 1.11, written by Peter Selinger 2001-2013
</metadata>
<g transform="translate(0.000000,350.000000) scale(0.100000,-0.100000)"
fill="#000000" stroke="none">
<path d="M448 3464 c-50 -27 -81 -52 -119 -100 -29 -35 -55 -62 -57 -59 -3 3
16 32 43 65 26 34 45 64 42 67 -13 13 -81 -79 -125 -167 -25 -52 -60 -117 -78
-145 -17 -27 -46 -79 -65 -115 -25 -48 -34 -60 -37 -44 -1 11 13 49 33 83 19
35 35 65 35 68 0 3 9 18 21 34 52 73 -11 122 -74 57 -74 -78 -67 30 -66 -1036
1 -942 1 -956 19 -907 10 28 19 62 19 78 1 33 19 36 25 5 17 -83 17 -139 -2
-180 -10 -24 -29 -52 -41 -62 -18 -16 -21 -30 -21 -98 0 -43 4 -78 8 -78 5 0
17 10 28 22 23 26 26 104 5 117 -9 6 -1 17 24 37 30 25 37 36 40 77 3 27 9 56
14 65 9 15 10 15 17 -3 21 -60 57 -139 75 -167 29 -45 18 -11 -30 99 l-41 93
-4 187 c-3 104 -10 233 -17 288 -13 118 -7 265 22 485 11 85 23 174 26 198 4
27 2 42 -5 42 -7 0 -10 18 -8 48 5 73 30 232 36 232 4 0 11 -27 16 -60 8 -47
6 -82 -8 -162 -9 -57 -18 -141 -18 -188 0 -59 -7 -105 -22 -150 -27 -84 -30
-299 -6 -400 9 -36 19 -96 23 -135 8 -100 16 -149 25 -160 20 -27 50 -131 55
-192 12 -159 16 -191 25 -242 12 -67 12 -74 1 -67 -11 7 -22 62 -27 136 -6 76
-48 291 -52 260 -6 -50 57 -395 92 -500 l34 -105 -29 -29 -29 -28 0 35 c0 43
-26 107 -43 107 -7 0 -18 -5 -23 -10 -8 -8 -16 14 -28 69 -27 124 -76 165 -76
63 0 -52 40 -149 65 -158 8 -3 15 -17 15 -29 0 -13 4 -35 10 -49 8 -21 4 -30
-20 -56 -30 -32 -39 -73 -20 -85 21 -13 9 -24 -20 -18 -37 7 -63 -14 -91 -71
-23 -48 -24 -65 -4 -72 12 -5 10 -12 -10 -38 -14 -18 -25 -39 -25 -47 1 -9 5
-8 16 6 44 60 64 74 97 68 26 -4 40 1 64 21 16 14 33 23 37 19 3 -4 17 4 31
17 14 13 25 18 25 12 0 -6 -5 -14 -10 -17 -6 -4 -29 -30 -51 -58 -34 -42 -40
-57 -38 -91 1 -23 1 -57 0 -76 -2 -34 -2 -34 -17 -15 -16 20 -16 20 -10 0 8
-28 -27 -51 -45 -29 -11 13 -8 20 19 45 38 36 40 43 8 35 -32 -8 -43 10 -20
35 34 37 4 31 -39 -8 -24 -22 -50 -43 -58 -46 -12 -5 -12 -7 1 -16 12 -9 13
-14 2 -31 -6 -11 -12 -40 -12 -64 0 -37 5 -48 31 -70 17 -14 35 -26 40 -26 15
0 10 18 -7 28 -10 5 -14 15 -10 21 6 9 11 9 22 0 8 -7 37 -13 64 -13 57 -2 79
-16 55 -36 -8 -7 -15 -19 -15 -27 0 -13 3 -13 25 1 31 20 35 20 35 -3 0 -34
12 -51 35 -51 13 0 27 5 30 10 3 6 17 7 31 4 19 -5 23 -3 18 10 -3 9 -12 16
-20 16 -8 0 -14 5 -14 10 0 6 11 10 25 10 14 0 28 7 31 15 4 10 13 13 26 9 18
-5 19 -2 13 38 -5 31 -2 49 9 63 14 18 15 19 16 2 0 -11 5 -15 11 -11 8 4 8 9
0 17 -23 23 -12 46 28 57 48 13 61 28 68 78 5 34 1 42 -23 62 l-29 24 22 44
c31 62 40 70 85 83 32 8 43 17 55 47 13 32 13 39 -1 69 -18 38 -8 78 22 87 18
6 76 -17 87 -34 6 -10 -39 -105 -62 -131 -42 -48 -121 -253 -102 -265 14 -8
10 -24 -5 -24 -8 0 -17 -7 -20 -16 -11 -30 -6 -122 9 -150 8 -16 15 -37 15
-47 0 -24 28 -77 40 -77 13 0 13 6 -6 41 -8 17 -13 33 -10 36 3 3 8 -2 12 -11
3 -9 10 -16 15 -16 5 0 2 11 -7 25 -9 14 -13 25 -8 25 4 0 3 5 -4 12 -7 7 -12
18 -12 25 0 24 15 13 34 -26 26 -55 74 -111 95 -111 9 0 25 13 34 30 20 33 14
39 -14 14 -15 -14 -20 -12 -53 23 -20 21 -41 55 -47 77 -9 35 -8 40 13 54 32
22 99 94 93 101 -3 2 -22 -12 -43 -32 -41 -40 -58 -48 -43 -18 40 74 356 413
412 441 52 27 71 58 68 113 -3 58 26 127 54 127 14 0 17 5 13 16 -11 27 21 53
57 48 28 -5 36 0 61 31 16 21 30 54 34 77 5 37 9 42 58 65 41 19 72 24 141 26
48 1 91 6 95 11 3 5 28 -10 55 -33 59 -52 71 -71 46 -71 -27 0 -80 36 -88 59
-3 12 -11 21 -16 21 -16 0 18 -56 45 -74 14 -9 41 -16 60 -16 35 0 36 -1 96
-122 33 -68 60 -136 60 -153 0 -16 -9 -53 -20 -82 -13 -34 -16 -54 -9 -59 16
-9 23 3 25 42 0 19 6 40 13 47 12 12 11 -38 -3 -178 -7 -69 -1 -63 9 7 7 54
19 61 33 21 l10 -28 9 25 c6 14 13 85 17 158 6 124 5 136 -14 167 -14 22 -30
35 -47 37 -20 2 -29 11 -38 37 -6 19 -17 37 -23 39 -17 5 -15 -18 2 -37 8 -9
18 -29 22 -46 7 -27 6 -29 -9 -16 -10 7 -17 22 -17 32 0 10 -4 21 -10 24 -14
9 -60 105 -50 105 5 0 12 -5 15 -10 6 -10 78 -50 90 -50 16 0 1 29 -17 33 -28
7 -108 65 -108 78 0 16 26 10 45 -11 28 -31 39 -24 15 10 -18 25 -19 30 -6 30
9 0 16 5 16 10 0 6 -6 10 -14 10 -7 0 -34 12 -60 26 -50 28 -72 50 -38 40 30
-10 36 9 7 22 -23 11 -55 68 -55 98 0 31 157 -73 255 -169 39 -39 57 -66 70
-107 10 -30 24 -62 32 -70 17 -16 16 -14 -4 52 -4 15 -3 19 5 14 7 -4 12 -14
12 -22 0 -8 5 -14 10 -14 20 0 9 26 -36 83 -43 55 -74 113 -74 136 0 7 9 7 26
1 34 -13 227 -13 219 0 -3 6 -24 10 -47 10 -35 0 -39 2 -28 15 10 12 9 16 -3
21 -18 7 -127 136 -127 150 0 5 -9 15 -21 22 -36 23 -13 25 51 6 53 -16 71
-28 122 -83 33 -35 68 -81 77 -100 27 -57 97 -162 104 -155 4 4 -2 19 -12 33
-10 14 -35 60 -56 101 -21 41 -51 90 -66 108 -16 18 -29 39 -29 47 0 22 8 18
25 -12 12 -21 15 -23 13 -8 -2 12 2 19 10 17 6 -1 12 3 12 8 0 11 -48 34 -66
32 -11 -2 -79 96 -72 103 2 2 22 -13 45 -33 23 -20 55 -47 71 -60 16 -12 53
-57 82 -99 42 -63 51 -83 46 -106 -4 -20 -2 -27 7 -25 21 8 19 47 -6 91 -13
23 -34 60 -46 82 l-23 40 24 -27 c28 -33 42 -36 33 -8 -5 14 -2 20 9 20 19 0
21 11 5 27 -7 7 -7 13 0 17 5 4 18 -5 27 -19 12 -18 20 -23 27 -16 7 7 2 18
-16 35 -27 25 -36 56 -17 56 6 0 10 -6 10 -13 0 -19 57 -70 69 -63 14 9 14 56
1 56 -5 0 -10 -7 -10 -16 0 -14 -3 -14 -15 -4 -8 7 -15 22 -15 35 0 12 -17 38
-37 58 -31 32 -34 37 -16 37 14 0 23 -8 27 -25 4 -14 12 -25 20 -25 7 0 18
-11 26 -24 7 -14 18 -22 25 -19 7 2 16 -5 20 -16 15 -48 101 -90 112 -55 2 7
-5 10 -21 7 -30 -6 -61 24 -94 91 -13 25 -31 50 -40 56 -15 8 -15 9 -1 10 9 0
26 -9 39 -20 32 -28 46 -25 59 11 15 43 14 54 -4 39 -8 -7 -15 -19 -15 -26 0
-8 -6 -14 -13 -14 -24 0 -27 12 -6 29 19 15 19 18 6 29 -9 7 -28 15 -44 16
-15 2 -32 4 -36 5 -5 0 -5 6 -1 13 4 7 7 27 6 45 -3 41 13 43 22 3 4 -21 11
-30 26 -30 16 0 20 7 20 30 0 32 -16 41 -22 13 -2 -10 -9 3 -16 30 -18 71 -39
64 -44 -16 -2 -26 -6 -47 -9 -47 -7 0 -36 73 -44 113 -3 15 -7 38 -10 52 -10
46 -25 26 -25 -32 -1 -52 -2 -56 -15 -40 -7 10 -19 50 -25 88 -7 38 -16 69
-21 69 -11 0 -11 -24 0 -72 7 -30 6 -38 -5 -38 -20 0 -31 28 -50 126 -20 103
-40 139 -30 54 3 -30 9 -66 13 -79 4 -16 2 -22 -4 -18 -10 7 -35 104 -48 193
l-6 42 43 6 c41 6 119 55 89 56 -8 0 -23 -8 -33 -17 -13 -11 -42 -19 -83 -21
-64 -4 -64 -4 -70 24 -4 16 -11 45 -16 64 -5 19 -9 48 -9 65 0 21 -3 26 -11
18 -8 -8 -8 -28 0 -74 6 -34 8 -65 6 -68 -14 -13 -25 23 -40 124 -9 60 -18
112 -21 114 -13 14 -16 -17 -6 -71 6 -34 10 -64 7 -66 -11 -11 -44 86 -50 148
-9 93 -30 108 -23 17 3 -37 2 -67 -2 -67 -10 0 -30 88 -30 130 0 16 -6 33 -14
37 -8 4 -38 53 -67 107 -92 173 -199 286 -334 353 -22 11 -116 48 -210 81 -93
33 -183 68 -200 76 -16 9 -39 16 -51 16 -11 0 -43 6 -70 14 -27 8 -71 18 -99
22 l-50 7 50 8 c28 5 64 6 81 3 20 -4 35 -1 39 7 6 9 -19 11 -113 7 -145 -6
-185 5 -89 26 19 5 27 13 27 27 0 16 4 19 23 14 21 -6 21 -6 3 9 -29 23 -130
21 -186 -5 l-45 -20 -35 40 c-20 23 -40 41 -45 41 -6 -1 -40 -17 -77 -36z m57
-121 c3 -21 8 -46 10 -55 2 -13 -3 -18 -21 -18 -15 0 -27 7 -30 18 -3 9 -9 24
-14 33 -6 11 -2 23 13 38 29 29 35 27 42 -16z m130 7 c3 -11 10 -20 13 -20 4
0 15 9 25 20 19 22 41 27 35 8 -5 -14 -42 -35 -73 -40 -15 -2 -21 3 -23 25 -4
31 14 37 23 7z m-243 -102 c-1 -29 1 -31 12 -15 20 26 49 20 74 -16 25 -38 26
-39 11 -108 l-11 -51 -27 39 c-41 63 -92 116 -100 107 -5 -5 -31 -44 -60 -88
-28 -43 -51 -73 -51 -65 1 38 95 199 117 199 6 0 15 9 18 21 9 28 18 16 17
-23z m450 27 c86 0 158 -2 160 -5 32 -41 148 -232 148 -244 0 -9 5 -16 11 -16
7 0 9 13 5 38 -5 28 -4 33 4 20 15 -25 186 -439 193 -469 11 -46 38 -371 31
-378 -5 -5 -4 -7 -50 184 -30 125 -46 171 -72 210 -19 28 -38 52 -44 54 -6 2
-9 0 -6 -5 55 -113 77 -167 85 -205 l10 -45 -34 -11 c-33 -10 -34 -9 -49 26
-70 162 -185 584 -165 604 5 5 -1 19 -13 32 -11 12 -28 33 -37 46 -24 34 -37
14 -15 -22 19 -33 48 -130 41 -137 -3 -3 -8 4 -11 14 -26 71 -175 235 -212
234 -12 -1 -6 -10 18 -28 59 -45 105 -101 154 -183 37 -62 51 -98 65 -171 10
-51 44 -168 75 -259 60 -178 60 -179 48 -179 -4 0 -16 23 -26 51 -10 28 -37
77 -58 110 -37 55 -41 67 -46 144 -5 86 -15 108 -25 56 -6 -28 8 -155 19 -172
3 -5 0 -9 -5 -9 -6 0 -11 6 -11 13 0 8 -11 35 -24 60 -36 72 -59 140 -127 381
-23 79 -73 167 -113 196 -11 8 -35 20 -54 27 -28 11 -37 10 -65 -7 -43 -27
-46 -26 -33 15 11 35 29 47 56 37 8 -4 85 -7 172 -7z m-324 -36 c-2 -6 -8 -10
-13 -10 -5 0 -11 4 -13 10 -2 6 4 11 13 11 9 0 15 -5 13 -11z m777 -59 c224
-76 318 -134 416 -257 72 -89 84 -110 110 -183 26 -74 18 -92 -11 -24 -52 124
-96 186 -201 280 -96 87 -180 127 -305 144 -46 6 -74 16 -108 41 -46 34 -61
57 -28 44 9 -4 67 -24 127 -45z m-752 -47 c-3 -126 44 -263 91 -263 19 0 28
-11 50 -57 40 -89 155 -304 177 -331 26 -33 24 -44 -6 -30 -14 6 -25 14 -25
18 0 4 -35 60 -77 126 -42 65 -85 142 -96 169 -10 28 -23 54 -28 59 -18 19
-21 -4 -5 -50 19 -56 19 -57 6 -49 -12 7 -90 159 -90 175 0 5 5 9 11 8 23 -6
19 20 -4 26 -24 6 -47 43 -47 74 1 9 11 -1 23 -23 19 -36 22 -38 25 -17 2 13
-4 32 -13 43 -15 15 -17 33 -13 102 3 69 11 107 21 107 1 0 1 -39 0 -87z m47
63 c0 -8 -4 -18 -10 -21 -5 -3 -10 3 -10 14 0 12 5 21 10 21 6 0 10 -6 10 -14z
m158 -48 c54 -87 69 -118 103 -211 16 -45 29 -83 29 -85 0 -14 -24 19 -60 80
-57 97 -119 178 -137 178 -18 0 -63 45 -63 64 0 14 39 34 72 35 10 1 32 -24
56 -61z m77 -63 c13 -27 27 -63 30 -80 5 -25 3 -24 -12 10 -10 22 -35 68 -55
102 -21 33 -38 65 -38 69 1 16 50 -51 75 -101z m348 88 c8 -10 16 -22 16 -27
0 -4 14 -17 31 -27 22 -14 42 -43 67 -95 37 -79 40 -96 25 -179 -7 -39 -10
-46 -16 -30 -5 11 -26 67 -48 125 -22 58 -56 136 -74 175 -19 38 -34 71 -34
72 0 9 19 0 33 -14z m-796 -30 c6 4 20 -4 32 -17 22 -23 22 -25 5 -53 -10 -15
-24 -33 -32 -40 -8 -6 -15 -29 -16 -50 -4 -53 -35 -153 -57 -182 -11 -13 -19
-32 -19 -42 0 -11 -7 -19 -16 -19 -10 0 -14 6 -10 18 8 29 11 186 3 207 -5 14
4 42 29 88 20 38 37 67 39 65 2 -2 -3 -30 -11 -63 -7 -33 -16 -100 -18 -150
l-5 -90 10 68 c5 38 18 110 28 160 10 50 17 98 14 106 -4 13 -3 13 5 2 5 -7
14 -11 19 -8z m234 -64 c-18 -20 -21 -20 -27 -6 -3 10 -3 28 0 42 6 25 7 25
27 6 l21 -20 -21 -22z m759 17 c127 -35 306 -186 373 -313 51 -98 97 -222 97
-263 0 -19 6 -61 14 -92 7 -32 11 -58 7 -58 -3 0 -26 15 -50 33 -38 28 -48 43
-68 102 l-23 70 5 -56 c3 -31 14 -76 25 -100 10 -24 15 -45 10 -47 -20 -7 -47
19 -59 57 -6 22 -16 43 -21 46 -5 3 -4 -8 2 -25 5 -17 8 -33 6 -35 -8 -8 -158
147 -175 179 -9 17 -42 75 -75 128 -38 63 -69 131 -89 195 -17 54 -41 114 -52
133 -13 21 -15 31 -7 24 163 -125 417 -290 429 -279 6 7 10 4 -117 83 -104 66
-322 227 -322 238 0 3 8 3 18 0 9 -2 42 -11 72 -20z m-692 -51 c9 -17 20 -32
24 -35 10 -8 69 -152 65 -157 -2 -2 -16 14 -30 34 -30 45 -85 103 -96 103 -12
0 -23 -29 -15 -41 3 -5 -2 -9 -12 -9 -14 0 -16 7 -10 47 7 50 31 96 47 91 6
-2 18 -17 27 -33z m-218 6 c16 -31 13 -46 -7 -30 -15 13 -16 11 -9 -21 l6 -35
-21 22 c-20 19 -20 24 -8 52 16 36 24 38 39 12z m130 -23 c0 -16 -3 -19 -11
-11 -6 6 -8 16 -5 22 11 17 16 13 16 -11z m180 -56 c18 -31 59 -96 92 -144 32
-47 65 -106 72 -130 25 -80 37 -103 45 -90 5 9 17 -8 35 -48 15 -34 25 -64 22
-67 -3 -3 -10 7 -17 23 -6 16 -15 39 -20 52 -5 12 -14 22 -22 22 -7 0 -30 27
-51 60 -23 36 -45 59 -54 58 -9 -2 -19 9 -25 27 -21 66 -81 213 -103 254 -26
48 -29 55 -15 47 5 -3 24 -32 41 -64z m-346 -39 c-5 -9 -21 -23 -33 -32 -23
-15 -23 -14 -16 9 22 72 24 75 43 57 12 -13 14 -22 6 -34z m-170 -20 c-2 -21
-6 -73 -10 -115 -3 -43 -10 -78 -15 -78 -5 0 -9 10 -9 23 0 12 -7 33 -16 46
-15 21 -15 27 11 92 30 76 45 89 39 32z m413 22 c9 -25 -4 -29 -17 -6 -7 15
-7 21 0 21 6 0 13 -7 17 -15z m-186 -36 c9 22 13 18 47 -55 21 -43 51 -117 66
-164 16 -47 33 -96 38 -110 6 -14 14 -38 19 -53 8 -28 7 -29 -19 -22 -57 14
-88 49 -114 132 -14 43 -29 99 -32 126 -9 57 -26 62 -26 7 0 -30 -4 -40 -16
-40 -14 0 -16 10 -12 75 3 46 1 78 -6 85 -8 8 -6 15 9 26 18 13 20 12 28 -8
l9 -23 9 24z m154 1 c3 -5 2 -10 -4 -10 -5 0 -13 5 -16 10 -3 6 -2 10 4 10 5
0 13 -4 16 -10z m738 -115 c57 -154 92 -229 135 -294 52 -77 134 -169 172
-192 14 -9 38 -41 53 -70 14 -30 42 -77 61 -104 20 -27 33 -51 30 -54 -4 -4
-34 24 -69 62 -35 37 -66 67 -70 67 -17 0 -135 116 -135 132 0 10 -17 42 -38
71 -21 29 -47 68 -59 89 -32 55 -113 244 -118 276 -20 129 -7 135 38 17z
m-998 44 c-9 -17 -19 -28 -22 -25 -8 8 17 56 29 56 5 0 1 -14 -7 -31z m30 -9
c-4 -12 -9 -19 -12 -17 -3 3 -2 15 2 27 4 12 9 19 12 17 3 -3 2 -15 -2 -27z
m386 -82 c6 -16 18 -28 25 -28 21 0 17 -17 -6 -23 -10 -3 -23 0 -28 7 -15 17
-49 88 -56 116 -7 23 -4 22 23 -10 17 -19 35 -47 42 -62z m-421 16 c0 -8 -5
-12 -10 -9 -6 4 -8 11 -5 16 9 14 15 11 15 -7z m-229 -173 c-16 -99 -34 -179
-43 -189 -8 -9 -18 -26 -22 -36 -3 -10 -9 -17 -11 -14 -5 4 10 90 41 233 15
72 54 188 60 182 2 -2 -9 -81 -25 -176z m259 159 c0 -5 -4 -10 -10 -10 -5 0
-10 5 -10 10 0 6 5 10 10 10 6 0 10 -4 10 -10z m255 -104 c19 -39 32 -73 30
-74 -7 -7 -26 10 -35 31 -4 12 -17 46 -29 75 -30 76 -5 52 34 -32z m872 -101
c54 -89 64 -108 59 -112 -9 -9 -95 124 -130 201 -49 107 -45 118 8 21 25 -44
53 -93 63 -110z m-1165 150 c-5 -30 -22 -33 -22 -4 0 11 -4 17 -10 14 -5 -3
-10 -1 -10 4 0 6 11 11 24 11 19 0 22 -4 18 -25z m55 -27 c6 -29 9 -55 8 -56
-2 -2 -15 4 -29 15 -35 25 -36 93 -1 93 6 0 16 -24 22 -52z m68 -10 c3 -24 9
-56 12 -73 5 -28 4 -29 -12 -14 -21 20 -37 129 -19 129 7 0 15 -19 19 -42z
m250 -62 c30 -49 55 -90 55 -93 0 -3 -17 9 -37 25 -26 21 -44 47 -57 83 -10
30 -21 61 -24 69 -9 27 6 6 63 -84z m190 32 c42 -66 94 -174 95 -195 0 -32
-29 -8 -45 35 -9 26 -37 86 -61 135 -24 48 -40 87 -36 87 4 0 25 -28 47 -62z
m-87 40 c13 -16 35 -98 28 -105 -5 -5 -66 96 -66 110 0 12 27 8 38 -5z m-563
-40 c-11 -55 -16 -68 -26 -68 -12 0 -1 69 14 88 16 20 19 14 12 -20z m45 -28
c0 -11 -4 -20 -10 -20 -5 0 -10 9 -10 20 0 11 5 20 10 20 6 0 10 -9 10 -20z
m600 -67 c17 -36 29 -68 27 -69 -6 -7 -44 51 -50 78 -4 14 -10 33 -13 42 -3 9
-3 16 0 16 3 0 19 -30 36 -67z m224 -135 c-11 -18 -24 -5 -42 45 -11 28 -22
68 -26 87 -4 26 4 15 33 -45 22 -44 37 -83 35 -87z m-444 133 c17 -33 11 -48
-10 -22 -11 13 -20 27 -20 32 0 16 19 9 30 -10z m730 -100 c29 -86 90 -178
186 -280 43 -47 72 -81 64 -76 -39 22 -111 83 -167 144 -35 36 -63 60 -63 53
0 -20 122 -143 191 -193 32 -24 57 -45 55 -46 -10 -10 -232 77 -246 97 -3 3
-12 9 -21 12 -13 5 -17 31 -23 139 -3 73 -9 158 -12 188 -6 67 4 55 36 -38z
m-660 59 c25 -19 25 -20 3 -20 -12 0 -27 9 -33 20 -13 25 -2 25 30 0z m978
-130 c30 -12 61 -55 48 -67 -6 -6 -56 28 -56 38 0 5 -6 9 -13 9 -18 0 -102 86
-130 131 -16 27 -6 20 49 -32 38 -36 84 -72 102 -79z m-1539 6 c-9 -8 -10 -2
-5 29 3 22 7 54 8 70 1 17 3 3 5 -29 3 -37 0 -63 -8 -70z m417 100 c3 -8 4
-23 2 -33 -3 -14 -8 -11 -21 15 -15 28 -16 32 -2 32 9 0 18 -6 21 -14z m194
-22 c0 -2 -9 -4 -21 -4 -11 0 -18 4 -14 10 5 8 35 3 35 -6z m60 -14 c13 -8 13
-10 -2 -10 -9 0 -20 5 -23 10 -8 13 5 13 25 0z m-590 -41 c6 -10 7 -19 2 -19
-5 0 -14 12 -20 26 -14 29 2 24 18 -7z m535 -33 c14 -27 24 -51 21 -53 -5 -6
-66 97 -66 112 0 16 17 -7 45 -59z m872 -32 c-6 -7 -87 74 -87 87 0 6 21 -10
46 -36 25 -26 43 -49 41 -51z m-352 19 c9 -38 23 -89 30 -115 7 -27 9 -48 4
-48 -16 0 -37 55 -44 115 -4 33 -12 67 -16 75 -6 9 -7 -8 -3 -45 7 -69 6 -69
-30 2 l-26 52 28 14 c15 8 30 15 33 16 4 1 15 -29 24 -66z m464 53 c6 -8 25
-19 41 -26 31 -13 44 -48 14 -36 -9 3 -26 9 -39 12 -14 3 -28 18 -34 35 -11
31 -1 38 18 15z m-910 -78 c28 -43 47 -79 43 -82 -8 -4 -102 144 -102 160 0
11 4 6 59 -78z m-788 19 c-13 -13 -15 11 -4 40 7 16 8 15 11 -6 2 -13 -1 -28
-7 -34z m817 12 c19 -30 8 -34 -12 -4 -9 14 -13 25 -9 25 5 0 14 -9 21 -21z
m242 -21 c30 -68 4 -65 -30 3 -18 34 -18 39 -5 39 9 0 24 -19 35 -42z m50 3
c11 -22 41 -70 66 -106 37 -53 44 -69 33 -76 -21 -13 -32 -11 -26 5 4 9 -10
30 -33 53 -28 27 -45 56 -59 101 -21 70 -12 82 19 23z m429 -149 c69 -68 138
-131 154 -140 15 -9 27 -20 27 -24 0 -9 -45 -1 -71 13 -43 22 -280 299 -279
327 0 4 10 -6 22 -23 11 -16 78 -85 147 -153z m-589 148 c0 -5 -2 -10 -4 -10
-3 0 -8 5 -11 10 -3 6 -1 10 4 10 6 0 11 -4 11 -10z m34 -5 c3 -8 1 -15 -4
-15 -6 0 -10 7 -10 15 0 8 2 15 4 15 2 0 6 -7 10 -15z m812 -56 c17 -47 17
-57 -2 -31 -8 12 -21 22 -27 21 -26 -3 -34 2 -45 26 -18 40 -15 44 25 30 28
-10 40 -21 49 -46z m-1790 -82 c-9 -57 -16 -126 -16 -153 -1 -45 -2 -47 -15
-30 -8 11 -18 17 -21 13 -4 -4 -1 -14 7 -23 10 -13 14 -66 15 -233 0 -119 4
-250 8 -291 5 -50 4 -70 -3 -60 -16 26 -32 174 -30 292 2 165 1 199 -7 243 -4
22 -7 76 -7 119 1 70 5 86 37 148 20 38 36 77 37 86 0 9 3 12 5 5 3 -6 -2 -58
-10 -116z m105 -8 c-3 -85 -5 -97 -12 -64 -10 50 -11 169 -2 178 14 15 18 -15
14 -114z m92 107 c20 -16 22 -26 4 -26 -7 0 -18 9 -25 20 -14 23 -5 26 21 6z
m1767 4 c0 -5 -5 -10 -11 -10 -5 0 -7 5 -4 10 3 6 8 10 11 10 2 0 4 -4 4 -10z
m-1724 -45 c41 16 53 16 102 4 30 -7 67 -24 81 -37 96 -89 114 -99 257 -136
28 -7 60 -18 72 -25 11 -6 33 -11 48 -11 15 0 54 -7 86 -16 44 -13 60 -22 63
-38 10 -43 12 -89 4 -138 -12 -73 -59 -241 -73 -255 -6 -7 -62 -34 -124 -62
-126 -56 -225 -73 -272 -49 -24 13 -122 171 -156 253 -22 53 -36 84 -77 180
-19 44 -40 98 -47 120 -7 22 -19 52 -27 67 -7 15 -15 57 -17 93 -3 63 -2 65
15 49 17 -16 22 -16 65 1z m1440 -11 c29 -17 52 -41 66 -68 11 -22 36 -65 56
-94 35 -53 37 -67 10 -57 -25 10 -200 245 -182 245 3 0 26 -12 50 -26z m24 16
c0 -5 -2 -10 -4 -10 -3 0 -8 5 -11 10 -3 6 -1 10 4 10 6 0 11 -4 11 -10z m269
-17 c0 -25 -1 -26 -9 -8 -12 27 -12 35 0 35 6 0 10 -12 9 -27z m63 -60 c9 -48
15 -89 13 -91 -7 -8 -26 39 -35 90 -6 29 -13 61 -16 71 -3 10 0 17 8 17 9 0
19 -28 30 -87z m-962 62 c20 -24 6 -28 -15 -5 -10 11 -13 20 -8 20 6 0 16 -7
23 -15z m767 -101 c34 -91 29 -108 -13 -49 -39 54 -74 118 -74 134 0 6 15 2
33 -7 24 -14 37 -33 54 -78z m-864 54 c3 -11 0 -30 -7 -40 -12 -17 -13 -15
-12 22 1 44 10 53 19 18z m63 1 c9 -15 12 -89 3 -89 -4 0 -9 12 -12 28 -3 15
-8 37 -12 50 -8 23 8 31 21 11z m108 -21 c-4 -6 -10 -5 -15 3 -14 22 -10 33 6
19 8 -7 12 -17 9 -22z m-1043 -293 c11 -49 25 -98 30 -107 5 -10 9 -27 9 -38
0 -11 7 -20 15 -20 10 0 15 -10 15 -32 0 -18 3 -51 7 -72 4 -26 3 -37 -4 -33
-6 4 -13 30 -17 58 -7 52 -21 57 -28 9 -3 -23 -5 -22 -26 18 -38 72 -64 212
-64 347 -1 66 3 136 8 155 7 30 10 18 21 -80 7 -63 22 -155 34 -205z m569 257
c-15 -5 -40 17 -40 36 0 12 6 10 26 -9 14 -13 20 -25 14 -27z m475 -12 c3 -5
1 -10 -4 -10 -6 0 -11 5 -11 10 0 6 2 10 4 10 3 0 8 -4 11 -10z m112 -5 c9
-24 -1 -27 -15 -5 -8 13 -8 20 -2 20 6 0 13 -7 17 -15z m-327 -16 c0 -6 -4 -7
-10 -4 -5 3 -10 11 -10 16 0 6 5 7 10 4 6 -3 10 -11 10 -16z m-754 -51 c9 -29
41 -107 70 -172 82 -182 52 -160 -41 29 -38 78 -69 195 -52 195 3 0 13 -24 23
-52z m1037 32 c21 -17 25 -26 21 -57 -3 -20 -9 -42 -14 -48 -6 -7 -7 -15 -3
-18 3 -4 2 -7 -3 -7 -12 1 -74 103 -74 122 0 34 35 38 73 8z m-101 -42 c22
-43 34 -124 20 -141 -12 -14 -5 -60 8 -52 13 8 21 -42 11 -68 -15 -38 -31 -43
-31 -10 0 15 -9 82 -20 148 -22 132 -24 155 -12 155 4 0 15 -15 24 -32z m268
10 c29 -31 25 -46 -5 -18 -23 21 -32 40 -20 40 2 0 13 -10 25 -22z m-103 -64
c3 -81 -11 -69 -22 20 -5 46 -4 57 7 54 9 -3 14 -27 15 -74z m-337 56 c0 -13
-20 -13 -40 0 -12 8 -9 10 13 10 15 0 27 -4 27 -10z m100 -11 c0 -6 -4 -7 -10
-4 -5 3 -10 11 -10 16 0 6 5 7 10 4 6 -3 10 -11 10 -16z m294 -15 c9 -8 16
-22 16 -30 0 -18 48 -106 107 -195 23 -36 43 -69 43 -73 0 -3 -28 11 -61 31
-53 33 -66 46 -90 98 -27 59 -53 185 -38 185 4 0 15 -7 23 -16z m134 0 c12 -8
26 -12 32 -9 5 3 51 -8 102 -25 77 -26 101 -39 140 -77 26 -26 51 -43 55 -39
4 4 3 10 -2 14 -6 4 -17 16 -25 27 -14 19 -14 19 6 5 76 -55 103 -76 104 -82
0 -15 -24 -8 -47 14 -18 17 -26 19 -32 10 -6 -10 -32 -4 -112 23 -86 30 -110
44 -139 76 -20 21 -40 39 -45 39 -4 0 2 -11 15 -25 29 -31 17 -32 -34 -2 -44
25 -78 67 -54 67 7 0 24 -7 36 -16z m-1326 -82 c18 -59 25 -133 10 -116 -10
10 -42 142 -42 170 0 29 13 7 32 -54z m864 -12 c9 -89 11 -183 5 -195 -9 -17
-30 118 -30 200 -1 95 15 92 25 -5z m51 23 c8 -52 9 -97 4 -185 0 -16 -6 -28
-12 -28 -7 0 -9 38 -8 113 1 61 -1 122 -5 135 -4 12 -3 22 2 22 6 0 14 -26 19
-57z m818 27 c16 -16 26 -32 23 -35 -5 -6 -68 49 -68 59 0 14 18 4 45 -24z
m-47 -18 c19 -15 48 -37 66 -50 26 -19 52 -64 55 -95 1 -12 -54 29 -103 75
-22 22 -65 51 -93 66 -29 14 -53 30 -53 35 0 19 93 -3 128 -31z m121 6 c16
-18 52 -59 81 -90 29 -32 47 -58 40 -58 -14 0 -144 130 -160 161 -17 31 6 23
39 -13z m-439 -98 c36 -34 59 -59 53 -55 -7 3 -13 1 -13 -4 0 -6 23 -23 51
-39 28 -15 72 -40 97 -56 26 -16 54 -30 64 -31 19 -2 115 -59 155 -92 l28 -23
-30 11 c-16 5 -46 20 -67 31 -50 28 -61 15 -17 -22 19 -16 32 -29 29 -30 -3 0
-75 31 -160 69 l-155 69 -55 81 c-51 75 -120 194 -120 207 0 8 65 -45 140
-116z m45 30 c45 -32 83 -68 101 -95 15 -25 30 -43 32 -40 3 2 -3 16 -13 31
-9 14 -13 25 -8 23 4 -2 42 -22 83 -43 41 -22 107 -55 145 -75 58 -30 76 -46
108 -94 21 -32 36 -61 33 -65 -3 -3 -25 9 -49 26 -85 65 -174 120 -249 156
-57 26 -99 57 -160 115 -46 43 -94 89 -108 101 -43 38 5 15 85 -40z m-355 15
c10 -18 10 -31 3 -47 l-11 -23 -11 28 c-23 58 -7 91 19 42z m113 -35 c3 -14 1
-20 -6 -17 -7 2 -14 14 -15 26 -4 28 13 20 21 -9z m401 -26 c38 -13 79 -24 92
-24 14 0 38 -19 69 -55 25 -30 43 -55 39 -55 -11 0 -220 107 -266 137 -39 24
-51 40 -20 28 9 -4 48 -18 86 -31z m-474 3 c0 -8 -10 -22 -21 -33 -15 -13 -20
-14 -15 -4 3 8 9 23 12 33 7 20 24 23 24 4z m755 -13 c14 -9 25 -23 25 -31 0
-12 -3 -13 -15 -3 -8 6 -18 9 -24 6 -8 -6 -21 15 -21 35 0 13 7 11 35 -7z
m-1750 -97 c21 -38 24 -51 15 -62 -6 -8 -9 -23 -5 -35 11 -35 -9 -22 -39 27
-23 35 -31 61 -34 107 l-3 61 20 -25 c11 -14 32 -47 46 -73z m1015 26 c0 -50
-14 -121 -46 -233 -7 -27 -23 -50 -33 -50 -3 0 -4 59 -2 132 3 131 3 132 35
170 17 21 34 38 39 38 4 0 7 -26 7 -57z m686 20 c11 -7 33 -38 49 -68 15 -30
31 -55 35 -55 4 0 10 -7 14 -15 6 -18 -8 -11 -61 27 -29 21 -113 120 -113 133
0 8 53 -7 76 -22z m-973 -63 c6 -64 6 -65 -25 -87 -18 -12 -33 -21 -35 -19 -2
1 3 18 11 37 7 19 19 58 26 87 7 29 13 52 15 50 2 -2 5 -32 8 -68z m1027 55
c7 -9 8 -15 2 -15 -5 0 -12 7 -16 15 -3 8 -4 15 -2 15 2 0 9 -7 16 -15z m-609
-37 c9 -7 18 -31 21 -53 3 -22 9 -48 13 -58 5 -13 3 -16 -8 -11 -11 4 -17 -2
-19 -18 -3 -20 -6 -18 -26 19 -12 23 -22 51 -22 61 0 11 -7 33 -15 48 -24 46
-20 57 13 39 15 -8 34 -20 43 -27z m706 20 c6 -7 13 -26 17 -43 6 -26 5 -28
-6 -15 -19 21 -40 70 -29 70 5 0 13 -6 18 -12z m-62 -58 c17 -33 10 -40 -11
-12 -13 17 -19 42 -9 42 2 0 11 -13 20 -30z m119 -3 c24 -60 29 -80 16 -72 -6
4 -15 18 -21 31 -26 69 -22 104 5 41z m-549 -88 c21 -22 24 -30 12 -26 -29 11
-177 110 -177 119 0 16 135 -60 165 -93z m601 64 c-4 -4 -11 -1 -16 7 -16 25
-11 35 7 17 9 -9 13 -20 9 -24z m-1169 -5 c-3 -7 -5 -2 -5 12 0 14 2 19 5 13
2 -7 2 -19 0 -25z m118 -135 c-4 -45 -11 -73 -18 -73 -17 0 -12 207 5 228 11
13 13 8 16 -34 2 -27 1 -82 -3 -121z m175 95 c23 -56 22 -84 -2 -60 -18 18
-27 15 -21 -7 3 -11 -2 -21 -12 -25 -15 -5 -17 -2 -11 25 3 17 6 57 6 87 0 64
8 61 40 -20z m914 25 c9 -18 13 -33 8 -33 -9 0 -32 44 -32 62 0 15 4 10 24
-29z m-1941 -22 c11 -21 17 -47 14 -57 -4 -17 -5 -17 -12 3 -4 12 -13 19 -20
17 -9 -4 -13 7 -13 35 0 23 2 41 6 41 4 0 15 -18 25 -39z m1297 -60 c25 -11
53 -21 62 -21 25 0 179 -192 165 -206 -17 -17 -152 73 -256 170 -50 47 -121
133 -121 147 0 5 24 -8 53 -30 29 -22 73 -49 97 -60z m-1466 6 c14 -15 26 -33
26 -40 1 -7 11 -41 24 -77 13 -36 35 -96 49 -135 13 -38 34 -102 46 -142 22
-72 53 -124 67 -111 4 5 0 16 -9 25 -19 22 -59 122 -54 137 2 6 10 0 17 -14
21 -39 141 -170 156 -170 8 0 14 1 14 3 0 2 -24 28 -53 58 -57 59 -71 93 -102
253 -8 43 -17 87 -20 98 -4 10 -2 18 2 18 5 0 15 -21 22 -47 7 -27 21 -67 31
-90 23 -52 45 -58 35 -11 l-7 32 47 -47 c26 -26 66 -59 90 -73 24 -14 42 -31
39 -37 -2 -7 0 -34 5 -60 12 -64 -2 -69 -18 -7 -7 28 -16 50 -19 50 -15 -1
-31 -17 -41 -42 -9 -23 -6 -32 14 -57 14 -16 25 -39 25 -50 0 -28 26 -91 38
-91 21 0 132 131 132 156 0 22 -47 47 -74 40 -20 -5 -26 -1 -35 26 -6 17 -10
33 -8 34 1 2 20 -3 42 -10 43 -15 85 -60 85 -90 0 -11 9 -29 20 -41 17 -18 18
-26 10 -55 -6 -19 -10 -56 -10 -82 0 -27 -3 -48 -6 -48 -9 0 -59 41 -56 46 6
10 1 24 -8 24 -5 0 -10 -7 -10 -15 0 -8 -11 -22 -25 -31 -24 -16 -27 -15 -63
10 -21 14 -50 26 -64 26 -34 0 -82 -55 -74 -84 18 -70 18 -70 -20 -94 l-36
-22 -51 26 c-29 14 -59 30 -67 34 -8 4 -20 26 -27 49 -19 66 -71 461 -61 461
2 0 28 -47 58 -105 52 -103 150 -228 165 -213 4 4 -17 34 -48 67 -58 63 -170
271 -183 341 -4 19 -11 40 -15 46 -15 19 -46 117 -53 169 l-7 50 19 -30 c11
-16 31 -43 46 -58z m128 -24 c8 -29 -4 -36 -36 -22 -17 8 -26 20 -26 34 0 13
-3 38 -6 56 l-6 34 33 -39 c19 -22 37 -50 41 -63z m1965 51 c-10 -10 -37 16
-37 34 0 13 4 12 22 -5 12 -13 19 -25 15 -29z m-77 4 c11 -18 20 -42 20 -53
-1 -18 -1 -19 -11 -2 -17 29 -40 87 -34 87 3 0 14 -15 25 -32z m-455 -12 c51
-21 79 -39 78 -48 -4 -18 25 -45 123 -117 94 -70 132 -109 69 -71 -71 42 -120
77 -155 111 -19 19 -49 43 -67 54 -17 11 -41 32 -53 48 -12 15 -26 25 -30 22
-10 -6 -50 16 -50 27 0 11 -4 12 85 -26z m-725 4 c-24 -15 -37 -11 -16 5 11 8
22 12 25 9 3 -3 -1 -9 -9 -14z m90 -10 c0 -16 -4 -30 -9 -30 -14 0 -20 37 -8
49 16 16 17 14 17 -19z m1150 -37 c0 -13 -20 -19 -20 -5 0 4 -3 18 -6 32 -5
24 -5 24 10 6 9 -11 16 -26 16 -33z m-954 -30 c-11 -29 -17 -6 -9 33 7 36 8
37 11 11 2 -16 1 -36 -2 -44z m-893 37 c3 -13 0 -20 -9 -20 -8 0 -14 9 -14 20
0 11 4 20 9 20 5 0 11 -9 14 -20z m656 -21 c-17 -10 -24 4 -14 29 6 16 7 16
17 -2 8 -14 7 -21 -3 -27z m1237 30 c3 -6 1 -16 -5 -22 -9 -9 -14 -8 -21 3 -9
15 -4 30 10 30 5 0 12 -5 16 -11z m-814 -36 c31 -35 91 -146 75 -140 -10 3
-82 103 -108 150 -15 26 4 20 33 -10z m98 -40 c0 -33 -32 -6 -50 42 l-11 30
30 -29 c17 -17 31 -36 31 -43z m-1240 31 c0 -8 -4 -14 -10 -14 -5 0 -10 9 -10
21 0 11 5 17 10 14 6 -3 10 -13 10 -21z m666 -9 c-4 -12 -95 -65 -112 -65 -17
0 8 26 56 59 53 35 68 37 56 6z m104 21 c0 -8 -4 -18 -10 -21 -5 -3 -10 3 -10
14 0 12 5 21 10 21 6 0 10 -6 10 -14z m816 -31 c18 -19 43 -50 55 -67 26 -37
22 -35 -61 37 -55 47 -67 65 -44 65 9 0 31 -16 50 -35z m-1556 9 c0 -8 -4 -12
-10 -9 -5 3 -10 10 -10 16 0 5 5 9 10 9 6 0 10 -7 10 -16z m1030 -34 c0 -4 -6
-10 -14 -13 -21 -8 -36 15 -29 43 l6 23 19 -22 c10 -13 18 -27 18 -31z m-985
22 c0 -18 -20 -15 -23 4 -3 10 1 15 10 12 7 -3 13 -10 13 -16z m670 -4 c13
-56 10 -73 -11 -76 -19 -3 -22 3 -26 40 -3 24 -3 46 -1 51 9 15 33 6 38 -15z
m-799 6 c18 -5 22 -16 28 -72 4 -37 9 -85 12 -107 5 -38 4 -39 -10 -21 -32 40
-79 206 -59 206 5 0 18 -3 29 -6z m1044 -9 c-7 -8 -16 -12 -21 -9 -13 8 -1 24
18 24 13 0 13 -3 3 -15z m168 -83 c41 -50 50 -70 26 -54 -24 16 -104 124 -103
140 0 13 4 12 17 -8 9 -14 36 -49 60 -78z m-466 16 c-2 -5 -10 -8 -18 -8 -11
0 -13 7 -8 28 11 52 17 58 24 22 3 -19 4 -38 2 -42z m249 39 c-6 -6 -11 -19
-11 -29 0 -30 -51 -178 -61 -178 -5 0 -9 -8 -9 -18 0 -38 -87 -232 -104 -232
-5 0 -20 -10 -33 -22 -13 -12 -23 -17 -23 -12 1 13 26 44 37 44 11 0 30 55 31
95 1 24 25 95 39 114 1 2 11 -2 20 -10 17 -13 17 -13 3 5 -13 16 -12 20 8 36
12 10 22 27 22 38 0 44 66 196 81 187 8 -5 8 -10 0 -18z m-861 -20 c0 -7 10
-30 21 -52 16 -29 17 -36 5 -26 -25 21 -58 80 -51 91 8 13 25 3 25 -13z m570
17 c0 -3 -18 -27 -41 -52 -23 -26 -45 -58 -50 -71 -7 -18 -13 -21 -21 -13 -8
8 -8 15 2 27 11 13 10 19 -5 35 -17 19 -16 20 41 48 64 32 74 35 74 26z m-120
-14 c0 -13 -28 -25 -38 -16 -3 4 0 11 8 16 20 13 30 12 30 0z m354 -14 c-3 -9
-10 -16 -15 -16 -6 0 -5 9 1 21 13 24 24 20 14 -5z m416 9 c7 -9 8 -15 2 -15
-5 0 -12 7 -16 15 -3 8 -4 15 -2 15 2 0 9 -7 16 -15z m-30 -39 c0 -6 -7 -2
-15 8 -8 11 -15 25 -15 30 0 6 7 2 15 -8 8 -11 15 -25 15 -30z m-424 9 c-3 -8
-8 -37 -12 -65 -4 -27 -10 -50 -15 -50 -12 0 -11 57 1 65 5 3 7 12 3 20 -7 19
3 45 18 45 6 0 9 -7 5 -15z m721 -19 c27 -18 63 -41 81 -50 46 -24 40 -34 -15
-25 -27 4 -54 8 -61 8 -7 1 -15 9 -19 19 -3 9 -15 29 -25 44 -34 49 -24 50 39
4z m-1172 14 c3 -5 -1 -10 -9 -10 -8 0 -18 5 -21 10 -3 6 1 10 9 10 8 0 18 -4
21 -10z m733 -26 c-10 -10 -28 6 -28 24 0 15 1 15 17 -1 9 -9 14 -19 11 -23z
m-855 2 c15 -4 25 -10 22 -15 -6 -11 -85 8 -85 21 0 5 8 7 18 5 9 -3 30 -8 45
-11z m417 6 c0 -10 -60 -55 -66 -49 -6 5 46 57 57 57 5 0 9 -4 9 -8z m-236
-29 l19 -26 -29 7 c-41 11 -62 46 -26 46 9 0 26 -12 36 -27z m296 18 c0 -18
-12 -41 -22 -41 -5 0 -37 -21 -70 -46 -33 -25 -62 -43 -64 -41 -3 2 27 30 66
63 38 32 70 62 70 66 0 4 5 8 10 8 6 0 10 -4 10 -9z m200 -6 c0 -8 -4 -15 -10
-15 -5 0 -7 7 -4 15 4 8 8 15 10 15 2 0 4 -7 4 -15z m137 -17 c-3 -7 -5 -2 -5
12 0 14 2 19 5 13 2 -7 2 -19 0 -25z m-895 3 c24 -19 89 -24 114 -8 6 3 19 -2
28 -11 15 -17 14 -20 -16 -42 -31 -23 -31 -23 -65 -5 -42 23 -112 84 -97 85 6
0 22 -9 36 -19z m188 -1 c8 -16 8 -20 -3 -20 -18 0 -39 24 -30 33 11 12 22 8
33 -13z m764 -6 c10 -27 7 -39 -6 -26 -8 8 -15 9 -25 1 -16 -14 -17 -5 -1 21
15 24 24 25 32 4z m120 -48 c37 -30 86 -96 72 -96 -7 0 -126 118 -126 125 0
11 15 3 54 -29z m-664 4 c-6 -11 -15 -20 -20 -20 -6 0 -5 9 2 20 7 11 16 20
21 20 4 0 3 -9 -3 -20z m328 -16 c-11 -41 -5 -53 17 -34 9 7 18 11 21 8 2 -3
-7 -13 -21 -22 -17 -11 -24 -23 -21 -34 4 -11 -6 -26 -29 -45 -28 -22 -35 -24
-35 -11 0 9 6 28 14 42 8 15 22 51 31 80 18 58 39 73 23 16z m628 11 c24 -37
12 -40 -21 -5 -22 23 -25 30 -12 30 9 0 24 -11 33 -25z m-1115 3 c40 -34 52
-57 39 -73 -7 -8 -17 -15 -22 -15 -7 0 -6 5 1 13 8 11 7 18 -7 30 -17 16 -20
15 -46 -12 -27 -28 -27 -30 -11 -55 20 -30 28 -32 45 -11 7 8 18 15 24 15 6 0
-2 -12 -18 -26 -33 -29 -24 -55 12 -33 28 18 40 4 18 -20 -18 -19 -14 -47 5
-36 5 4 9 2 9 -4 0 -19 -17 -20 -34 -3 -28 29 -96 139 -96 155 0 8 -7 18 -16
21 -20 7 -10 23 30 47 36 22 47 23 67 7z m780 -15 c34 -23 38 -28 26 -40 -15
-15 -22 -17 -107 -28 -30 -4 -72 -14 -93 -23 -38 -15 -64 -9 -37 8 30 20 122
50 150 50 39 0 48 19 19 41 -37 29 -4 22 42 -8z m-967 -26 c38 -23 71 -48 74
-54 4 -15 -130 60 -148 82 -21 25 2 17 74 -28z m486 33 c0 -5 -4 -10 -10 -10
-5 0 -10 5 -10 10 0 6 5 10 10 10 6 0 10 -4 10 -10z m330 0 c0 -5 -15 -16 -34
-24 -18 -8 -37 -19 -40 -25 -4 -6 -17 -16 -29 -21 -12 -6 0 9 26 34 46 44 77
58 77 36z m-530 -42 c0 -16 -3 -19 -11 -11 -6 6 -8 16 -5 22 11 17 16 13 16
-11z m490 -7 c0 -5 -7 -12 -16 -15 -14 -5 -15 -4 -4 9 14 17 20 19 20 6z m370
-31 c8 -5 11 -12 7 -16 -4 -4 -15 0 -24 9 -18 18 -8 23 17 7z m-890 -20 c0 -5
-5 -10 -11 -10 -5 0 -7 5 -4 10 3 6 8 10 11 10 2 0 4 -4 4 -10z m417 -67 c-25
-26 -49 -45 -52 -42 -3 4 16 27 41 53 26 25 49 44 53 41 3 -3 -16 -27 -42 -52z
m19 -29 c-3 -9 -6 -19 -6 -23 0 -12 -48 -61 -60 -61 -19 0 -10 22 23 60 34 40
53 51 43 24z m-93 -28 c-5 -26 -53 -78 -53 -57 0 6 9 30 20 52 22 42 40 45 33
5z m-63 -90 c0 -3 -4 -8 -10 -11 -5 -3 -10 -1 -10 4 0 6 5 11 10 11 6 0 10 -2
10 -4z m-100 -71 c-24 -25 -46 -45 -47 -45 -5 0 27 62 39 78 6 6 20 12 31 12
18 0 14 -7 -23 -45z m-190 -95 c-35 -32 -67 -56 -70 -53 -3 3 24 31 60 63 35
32 67 56 70 53 3 -3 -24 -31 -60 -63z m186 28 c-9 -21 -56 -73 -118 -129 -56
-51 -159 -155 -228 -230 -69 -75 -126 -136 -127 -135 -7 6 23 66 32 66 11 0
115 114 115 127 0 12 163 173 175 173 6 0 22 15 35 33 23 31 122 134 128 131
1 0 -4 -17 -12 -36z m42 5 c-1 -16 1 -38 5 -50 6 -17 0 -30 -27 -60 l-35 -38
-1 36 c0 20 8 47 18 60 11 13 22 36 26 52 3 15 8 27 11 27 2 0 3 -12 3 -27z
m-166 -31 c-6 -16 -142 -141 -197 -182 -20 -15 -20 -15 -1 10 30 38 188 190
197 190 5 0 5 -8 1 -18z m-164 -201 c-73 -77 -134 -138 -136 -136 -9 9 26 50
137 158 66 64 123 117 127 117 3 0 -54 -63 -128 -139z m262 122 c0 -15 -21
-40 -142 -166 -167 -175 -235 -255 -259 -299 -22 -42 -34 -50 -23 -16 10 31
38 71 113 156 35 40 60 76 57 80 -4 4 -24 -14 -44 -38 -61 -75 -120 -135 -126
-129 -3 3 15 30 40 60 56 66 255 269 264 269 4 0 29 20 56 45 46 43 64 54 64
38z m-610 -77 c0 -2 -7 -7 -16 -10 -8 -3 -12 -2 -9 4 6 10 25 14 25 6z m-110
-30 c0 -9 -65 -66 -74 -66 -6 0 5 16 24 35 30 31 50 43 50 31z m46 -45 c-37
-72 -73 -111 -104 -111 -14 0 -36 -10 -49 -22 -13 -12 -23 -17 -23 -11 0 15
174 193 188 193 8 0 4 -17 -12 -49z m-186 -19 c0 -13 -12 -22 -22 -16 -10 6
-1 24 13 24 5 0 9 -4 9 -8z m110 -192 c0 -5 -4 -10 -9 -10 -6 0 -13 5 -16 10
-3 6 1 10 9 10 9 0 16 -4 16 -10z m-59 -19 c-13 -10 -30 -31 -37 -47 -11 -27
-12 -27 -13 -6 -1 24 40 72 61 72 7 0 2 -9 -11 -19z m-184 -67 c3 -11 -46 -48
-53 -41 -3 3 2 17 12 32 16 25 35 29 41 9z m550 -16 c-3 -8 -6 -5 -6 6 -1 11
2 17 5 13 3 -3 4 -12 1 -19z m-22 -43 c5 -40 3 -59 -7 -68 -11 -11 -13 -2 -15
55 -2 82 12 90 22 13z m-543 -17 c-7 -7 -12 -8 -12 -2 0 14 12 26 19 19 2 -3
-1 -11 -7 -17z m93 -22 c-15 -27 -22 -33 -32 -24 -20 16 -16 32 15 49 36 21
39 16 17 -25z m83 -5 c3 -8 -1 -12 -9 -9 -7 2 -15 10 -17 17 -3 8 1 12 9 9 7
-2 15 -10 17 -17z m-193 -21 c3 -5 -1 -10 -10 -10 -9 0 -13 5 -10 10 3 6 8 10
10 10 2 0 7 -4 10 -10z m145 -20 c0 -5 -9 -10 -20 -10 -11 0 -20 5 -20 10 0 6
9 10 20 10 11 0 20 -4 20 -10z m95 -110 c3 -5 -1 -10 -9 -10 -9 0 -16 5 -16
10 0 6 4 10 9 10 6 0 13 -4 16 -10z"/>
<path d="M1620 2586 c0 -5 8 -20 18 -34 10 -15 22 -35 25 -45 4 -10 11 -15 17
-12 7 4 4 17 -7 36 -19 32 -53 67 -53 55z"/>
<path d="M1656 2285 c3 -11 14 -31 24 -45 16 -21 18 -22 14 -5 -3 11 -14 31
-24 45 -16 21 -18 22 -14 5z"/>
<path d="M81 2144 c0 -11 3 -14 6 -6 3 7 2 16 -1 19 -3 4 -6 -2 -5 -13z"/>
<path d="M71 2094 c0 -11 3 -14 6 -6 3 7 2 16 -1 19 -3 4 -6 -2 -5 -13z"/>
<path d="M406 2173 c-10 -3 -28 -13 -39 -24 -20 -18 -20 -19 22 -83 42 -64 63
-82 83 -70 7 4 1 14 -13 25 -18 14 -20 19 -8 19 9 0 24 -11 33 -25 14 -22 46
-35 46 -20 0 8 -51 55 -60 55 -3 0 -16 9 -28 20 l-22 21 20 39 c11 22 20 42
20 45 0 6 -26 5 -54 -2z"/>
<path d="M424 1894 c3 -9 9 -26 12 -38 3 -12 18 -30 34 -41 30 -20 39 -35 21
-35 -5 0 -9 -26 -8 -57 2 -55 4 -58 42 -85 46 -32 55 -34 55 -13 0 8 6 15 13
15 7 0 20 8 29 19 8 10 22 21 29 24 11 5 10 8 -4 17 -14 9 -15 15 -7 25 15 18
-46 75 -118 112 -30 14 -60 37 -69 50 -17 26 -38 31 -29 7z m171 -168 c15 -8
22 -17 16 -20 -6 -4 -22 1 -36 10 -41 27 -27 34 20 10z"/>
<path d="M181 1904 c0 -11 3 -14 6 -6 3 7 2 16 -1 19 -3 4 -6 -2 -5 -13z"/>
<path d="M253 1495 c0 -27 2 -38 4 -22 2 15 2 37 0 50 -2 12 -4 0 -4 -28z"/>
<path d="M500 1221 c0 -5 17 -23 39 -40 37 -30 39 -30 55 -12 15 16 15 22 4
40 -17 27 -28 27 -29 -1 l0 -23 -11 23 c-11 22 -58 32 -58 13z"/>
<path d="M447 922 c-36 -4 -65 -46 -47 -67 17 -21 56 -19 80 5 36 36 19 69
-33 62z"/>
<path d="M874 548 l-19 -23 23 19 c12 11 22 21 22 23 0 8 -8 2 -26 -19z"/>
<path d="M356 554 c-8 -21 -8 -24 3 -24 5 0 11 9 14 20 6 24 -8 27 -17 4z"/>
<path d="M1634 3448 c-4 -6 1 -15 10 -20 11 -6 14 -17 10 -33 -6 -23 -2 -26
54 -41 43 -12 59 -21 55 -30 -3 -8 1 -14 9 -14 8 0 23 -6 34 -14 15 -12 17
-17 7 -27 -20 -20 -16 -25 35 -47 96 -40 154 -37 67 4 -39 18 -48 40 -12 29
12 -3 30 -8 39 -9 10 -1 21 -5 24 -9 11 -10 24 -8 24 3 0 6 -26 22 -57 36 -55
24 -113 68 -113 86 0 4 15 8 34 8 18 0 49 3 67 7 28 6 17 9 -62 19 -53 7 -112
20 -130 29 -50 26 -88 35 -95 23z"/>
<path d="M3464 3411 c-18 -11 -35 -24 -38 -30 -8 -13 -129 -74 -179 -90 -44
-15 -57 -35 -57 -92 0 -40 -1 -41 -18 -26 -49 45 -113 -5 -127 -98 -14 -100
-67 -167 -144 -184 -29 -6 -61 -16 -72 -22 -11 -5 -33 -12 -49 -14 -51 -6
-151 -57 -160 -81 -19 -49 -2 -66 97 -100 45 -15 56 -16 80 -4 15 7 66 14 113
15 47 2 114 10 150 20 36 9 75 19 88 22 38 9 129 100 156 156 19 39 28 83 38
177 l12 125 55 52 c30 29 63 55 73 59 15 4 18 16 18 70 0 35 -1 64 -2 64 -2 0
-17 -9 -34 -19z"/>
<path d="M1970 3389 c0 -5 5 -7 10 -4 6 3 10 8 10 11 0 2 -4 4 -10 4 -5 0 -10
-5 -10 -11z"/>
<path d="M2280 3235 c-14 -8 -33 -14 -42 -15 -25 0 -22 -12 7 -40 22 -21 23
-24 8 -35 -15 -11 -13 -14 15 -29 28 -15 32 -15 32 -1 0 20 12 19 52 -4 45
-26 88 -35 87 -19 0 7 -26 25 -58 41 -33 15 -67 39 -76 54 -17 25 -17 27 6 44
29 23 6 25 -31 4z"/>
<path d="M2496 3085 c-43 -15 -52 -22 -42 -32 4 -4 10 -2 15 5 5 8 14 2 31
-20 15 -21 19 -33 12 -36 -17 -5 -15 -29 5 -63 14 -23 24 -29 51 -29 28 0 33
3 27 18 -11 30 -35 126 -35 143 0 24 -20 29 -64 14z"/>
<path d="M2090 3081 c0 -18 41 -34 53 -22 13 13 10 16 -25 25 -16 4 -28 2 -28
-3z"/>
<path d="M2085 3027 c-12 -19 -23 -26 -36 -22 -14 5 -17 2 -13 -9 3 -9 15 -16
25 -16 21 0 53 43 47 62 -3 8 -12 2 -23 -15z"/>
<path d="M1910 3028 c2 -24 30 -93 40 -96 7 -3 10 1 7 9 -3 8 -11 31 -18 52
-7 20 -16 37 -21 37 -4 0 -8 -1 -8 -2z"/>
<path d="M1957 3004 c-14 -15 38 -98 55 -88 5 3 0 15 -11 25 -12 11 -21 28
-21 39 0 20 -13 33 -23 24z"/>
<path d="M2150 2891 c-18 -34 -12 -60 14 -67 31 -8 80 15 84 40 8 42 -77 65
-98 27z"/>
<path d="M2426 2856 c-20 -31 -15 -45 27 -73 59 -41 85 -22 37 27 -16 17 -30
40 -30 50 0 27 -14 25 -34 -4z"/>
<path d="M1938 2853 c-41 -49 -24 -86 37 -81 53 4 58 30 15 69 -37 34 -33 33
-52 12z"/>
<path d="M3339 2472 c-4 -40 -2 -52 6 -54 14 -4 19 42 6 55 -8 8 -11 8 -12 -1z"/>
<path d="M3190 2466 c0 -5 6 -20 14 -34 7 -15 18 -40 22 -57 9 -30 48 -56 106
-69 21 -5 30 -2 39 16 10 18 8 24 -7 35 -11 7 -31 25 -46 38 -34 32 -49 13
-17 -21 12 -13 19 -27 15 -31 -4 -5 -19 6 -33 22 -59 71 -93 108 -93 101z"/>
<path d="M3150 2429 c0 -5 5 -7 10 -4 6 3 10 8 10 11 0 2 -4 4 -10 4 -5 0 -10
-5 -10 -11z"/>
<path d="M3382 2423 c-18 -32 -16 -51 4 -31 9 8 14 24 12 34 -4 18 -5 17 -16
-3z"/>
<path d="M2830 2359 c0 -6 10 -19 22 -29 13 -10 23 -26 23 -36 0 -10 11 -24
25 -31 21 -11 27 -10 36 2 6 8 16 15 22 15 6 0 14 5 18 12 5 8 0 9 -16 5 -24
-6 -80 17 -80 32 0 5 -11 16 -25 25 -15 10 -25 12 -25 5z"/>
<path d="M2475 2340 c-3 -5 5 -15 19 -22 14 -6 26 -19 26 -30 0 -10 8 -23 19
-29 11 -7 16 -19 13 -31 -5 -22 9 -23 51 -1 18 9 47 17 66 17 40 1 56 26 17
26 -30 0 -150 52 -160 69 -9 14 -43 15 -51 1z"/>
<path d="M3437 2322 c-14 -16 -13 -20 24 -50 l39 -33 0 25 c0 33 -20 76 -35
76 -7 0 -19 -8 -28 -18z"/>
<path d="M2660 2130 c-14 -4 -34 -6 -45 -3 -13 2 -29 -5 -44 -21 -25 -27 -21
-46 10 -46 24 0 25 -19 2 -36 -17 -12 -17 -14 -2 -29 15 -16 19 -16 48 0 18 9
50 33 71 53 36 34 38 39 27 62 -14 27 -29 32 -67 20z"/>
<path d="M3065 2123 c-30 -4 -39 -7 -110 -37 -73 -32 -203 -148 -236 -211 -13
-25 -28 -45 -34 -45 -5 0 -19 -13 -30 -28 -22 -30 -115 -210 -115 -224 0 -12
38 -10 77 4 26 9 35 20 43 48 20 80 28 104 29 93 1 -7 10 -13 20 -13 25 0 33
13 47 75 12 52 33 111 47 133 23 36 158 117 252 153 11 4 34 12 51 18 17 7 47
13 67 14 21 2 38 7 40 12 2 10 -95 16 -148 8z"/>
<path d="M3085 1883 c-64 -20 -85 -39 -156 -146 -32 -49 -71 -103 -85 -120
-28 -33 -62 -101 -88 -178 -19 -54 -107 -209 -148 -261 -16 -21 -38 -38 -49
-38 -30 0 -168 -58 -216 -91 -24 -17 -47 -29 -49 -26 -3 3 22 33 55 66 34 34
61 69 61 77 0 20 -14 11 -78 -50 -69 -67 -77 -69 -68 -18 5 31 3 40 -6 37 -21
-8 -43 11 -31 27 14 17 25 68 16 68 -11 -1 -39 -58 -75 -150 -16 -41 -38 -83
-49 -93 -20 -18 -18 -57 4 -85 7 -9 2 -18 -17 -33 -56 -44 -27 -65 105 -74
l87 -7 60 -58 c40 -40 66 -75 78 -107 9 -26 25 -57 35 -67 16 -17 19 -18 24
-4 5 13 15 15 41 11 39 -6 41 -2 15 35 -17 24 -36 92 -26 92 17 0 74 -45 84
-67 37 -82 177 -233 215 -233 22 0 20 17 -3 25 -10 3 -22 13 -25 23 -3 9 -9
23 -12 30 -9 18 26 15 61 -7 l30 -18 27 31 c24 27 29 29 41 16 33 -39 80 -50
113 -25 10 8 22 15 25 15 3 0 11 -36 18 -80 8 -44 17 -80 22 -80 5 0 15 -11
21 -25 6 -14 19 -25 28 -25 23 0 43 46 30 69 -11 21 -44 203 -66 366 -26 187
-31 230 -29 232 1 2 11 -10 22 -25 12 -16 30 -70 41 -123 23 -108 150 -485
187 -556 45 -84 83 -112 104 -76 7 13 -1 37 -30 94 -21 42 -54 118 -73 169
l-35 92 20 35 20 35 -31 82 c-17 44 -40 96 -50 114 -13 21 -17 42 -14 61 4 17
-1 41 -11 61 -9 17 -14 35 -11 38 13 12 28 -17 41 -80 17 -83 59 -202 88 -250
20 -33 98 -139 118 -163 5 -5 9 296 9 677 l0 687 -21 6 c-15 5 -25 2 -30 -8
-5 -8 -20 -22 -35 -32 -21 -14 -28 -14 -34 -4 -7 10 -12 10 -23 1 -11 -9 -22
-10 -41 -2 -37 14 -72 13 -104 -4 -35 -18 -94 -10 -90 13 4 20 102 71 138 71
29 0 60 -27 60 -53 0 -9 5 -19 10 -22 24 -15 9 56 -19 87 -27 31 -33 33 -102
35 -45 1 -94 -4 -124 -14z m370 -193 c3 -5 -1 -10 -9 -10 -9 0 -16 5 -16 10 0
6 4 10 9 10 6 0 13 -4 16 -10z m-455 -125 c0 -65 -15 -72 -30 -14 -8 30 -8 44
1 55 21 26 29 15 29 -41z m269 -74 c20 -36 22 -47 12 -68 -18 -38 -36 -22 -39
35 -3 47 -6 54 -34 68 -24 12 -28 18 -17 25 20 12 50 -11 78 -60z m-341 -57
c-2 -1 -16 -6 -32 -10 -26 -6 -27 -5 -17 14 6 11 16 33 22 49 l12 28 9 -39 c4
-21 7 -40 6 -42z m51 -150 c-9 -11 -17 -11 -41 2 -31 16 -29 29 7 36 26 6 49
-20 34 -38z m271 -69 c0 -13 -4 -27 -10 -30 -6 -4 -10 8 -10 30 0 22 4 34 10
30 6 -3 10 -17 10 -30z m-580 -207 c0 -16 -3 -19 -11 -11 -6 6 -8 16 -5 22 11
17 16 13 16 -11z m446 5 c15 -21 18 -33 6 -33 -5 0 -14 11 -20 25 -13 29 -5
33 14 8z m-836 -19 c0 -10 -28 -34 -41 -34 -8 0 -5 7 6 20 17 19 35 26 35 14z
m812 -246 c5 -82 -8 -91 -17 -13 -8 60 -25 75 -25 23 0 -25 -3 -29 -10 -18
-17 26 -7 142 18 210 6 18 28 -110 34 -202z m-362 171 c0 -5 -4 -9 -10 -9 -5
0 -10 7 -10 16 0 8 5 12 10 9 6 -3 10 -10 10 -16z m-40 -123 c0 -6 -9 0 -20
14 -26 33 -25 52 0 21 11 -13 20 -28 20 -35z m-36 -41 c6 -48 6 -49 -8 -20 -7
17 -16 46 -20 65 -6 30 -5 33 8 20 8 -8 17 -37 20 -65z m406 -90 c0 -17 -2
-17 -10 -5 -5 8 -10 24 -10 35 0 17 2 17 10 5 5 -8 10 -24 10 -35z m39 -42
c-1 -37 -1 -37 -8 -8 -7 28 -5 45 5 45 2 0 3 -17 3 -37z m171 -35 c0 -4 -4 -8
-10 -8 -5 0 -10 4 -10 9 0 5 -3 18 -6 28 -5 16 -4 16 10 -1 9 -11 16 -23 16
-28z m-463 -40 c-3 -7 -5 -2 -5 12 0 14 2 19 5 13 2 -7 2 -19 0 -25z m186 -30
c6 -8 7 -24 2 -34 -8 -18 -8 -18 -13 1 -2 11 -8 24 -13 30 -5 5 -9 13 -9 18 0
13 22 3 33 -15z m114 -15 c-3 -10 -5 -4 -5 12 0 17 2 24 5 18 2 -7 2 -21 0
-30z"/>
<path d="M2234 770 c-19 -7 -21 -14 -17 -62 3 -29 13 -92 23 -139 16 -75 24
-93 59 -130 l40 -43 10 29 c11 31 13 34 45 79 17 24 17 28 2 51 -19 29 -66 34
-90 10 -19 -19 -26 -19 -26 0 0 8 11 17 24 21 23 5 24 9 21 72 -2 37 -4 72 -4
79 -1 18 -30 43 -49 42 -9 0 -27 -4 -38 -9z"/>
<path d="M2009 573 c-6 -16 -15 -36 -20 -45 -5 -10 -9 -26 -9 -35 1 -17 1 -17
11 1 9 14 13 16 20 5 12 -20 16 -10 21 49 5 56 -6 68 -23 25z"/>
<path d="M2427 544 c-15 -16 -5 -52 29 -103 l36 -53 24 24 c22 21 23 27 13 55
-8 25 -16 31 -37 30 -20 -2 -27 4 -32 22 -6 25 -21 37 -33 25z"/>
<path d="M1030 505 c0 -9 -50 -67 -111 -128 -114 -114 -199 -218 -199 -243 0
-33 42 -7 141 89 108 104 185 165 195 154 10 -10 -29 -60 -121 -157 -88 -94
-124 -144 -112 -156 10 -10 26 6 46 45 11 21 51 71 89 112 115 124 148 179
107 179 -20 0 -131 -86 -223 -174 -45 -43 -85 -76 -88 -73 -9 8 64 95 188 224
60 61 108 116 108 122 0 5 -4 13 -10 16 -5 3 -10 -1 -10 -10z"/>
<path d="M1972 445 c0 -16 2 -22 5 -12 2 9 2 23 0 30 -3 6 -5 -1 -5 -18z"/>
<path d="M2195 450 c-3 -5 -1 -10 4 -10 6 0 11 5 11 10 0 6 -2 10 -4 10 -3 0
-8 -4 -11 -10z"/>
<path d="M0 430 c0 -5 5 -10 10 -10 6 0 10 5 10 10 0 6 -4 10 -10 10 -5 0 -10
-4 -10 -10z"/>
<path d="M69 406 c-41 -39 -70 -77 -67 -87 2 -5 26 16 54 46 50 55 60 85 13
41z"/>
<path d="M2105 389 c9 -28 24 -49 36 -49 12 0 -17 64 -31 68 -8 3 -10 -3 -5
-19z"/>
<path d="M1102 248 c-16 -24 -60 -72 -97 -108 -75 -73 -92 -97 -77 -112 10
-10 102 48 102 64 0 13 -12 9 -47 -18 -51 -39 -39 -15 22 46 51 50 143 170
131 170 -3 0 -18 -19 -34 -42z"/>
<path d="M2391 246 c-13 -15 1 -56 18 -56 5 0 27 -25 50 -55 23 -30 48 -55 56
-55 20 0 19 3 -9 45 -14 20 -32 58 -41 85 -14 41 -21 50 -40 50 -12 0 -28 -6
-34 -14z"/>
<path d="M3177 204 c-12 -13 -7 -42 8 -48 8 -3 15 -14 15 -24 0 -20 39 -62 58
-62 17 0 15 20 -3 27 -18 6 -57 76 -53 94 3 13 -15 23 -25 13z"/>
<path d="M2525 190 c-5 -7 2 -21 19 -36 14 -14 26 -31 26 -38 0 -18 33 -46 54
-46 9 0 19 -7 22 -15 10 -26 31 -16 38 17 8 39 -5 53 -47 53 -23 0 -34 6 -44
25 -7 14 -18 24 -24 22 -6 -1 -17 5 -24 14 -9 13 -14 14 -20 4z"/>
<path d="M2690 156 c0 -9 7 -16 16 -16 17 0 14 22 -4 28 -7 2 -12 -3 -12 -12z"/>
<path d="M2342 118 c2 -6 10 -14 16 -16 7 -2 10 2 6 12 -7 18 -28 22 -22 4z"/>
<path d="M2394 75 c26 -19 42 -19 26 0 -7 8 -20 15 -29 15 -13 -1 -13 -3 3
-15z"/>
</g>
</svg>
